<svg id="WHITE_TYPE" xmlns="http://www.w3.org/2000/svg" width="38" height="38" viewBox="0 0 38 38">
  <g id="class_29_copy" data-name="class_29 copy">
    <path d="M35.27,20.25l-1.84-.57C32.34,15.51,27.22,16,27.22,16l-1.28-1.57v1.83l-5.41-5.15v3.58l2.87,1.93L23.8,19,26,20.23C26.34,17.93,28.9,18,28.9,18c2.72,0,3.15,1.81,3.22,2.51l-9,9.86L17.74,24.9,19,23.5l1.27,1.4-.76,1,1,1.14,1.91-2.16-1.66-1.79c0-2.05,2.86-2.78,2.86-2.78l-1.26-.83L22,17l-1.36-1-.19-.13v3.75L19,21.13l-1.44-1.54V15.84l-.19.13L16,17l-.4,2.52-1.26.83s2.89.74,2.86,2.81L15.58,24.9l5.21,5.73-1.78,2-1.78-1.91,1.53-1.65-1.27-1.27L15,30.33l-9.1-9.92C6,19.65,6.5,18,9.1,18c0,0,2.56-.07,2.91,2.23l2.19-1.18.4-2.47,2.87-1.92V11.07l-5.41,5.15V14.39L10.78,16s-5.12-.45-6.21,3.73l-1.84.57-.8-1.17v1.69H5.72L18.21,34.41l.8.92.2-.22,0,0L32.39,20.78h3.68V19.09ZM18.33,19l.67.68.68-.68V10.3h1.67L19.09,2.67,16.71,10.3h1.62V19Z" fill="#fff"/>
  </g>
</svg>
