<svg id="WHITE_TYPE" xmlns="http://www.w3.org/2000/svg" width="38" height="38" viewBox="0 0 38 38">
  <g id="class_12_copy" data-name="class_12 copy">
    <g>
      <path d="M30.12,27.77a1.21,1.21,0,0,0-.24-1.51,3.86,3.86,0,0,1-.66,1.66c-.22.17-1.5,1-1.43,1.76,0,0,.56-.5.76-.48a1.43,1.43,0,0,0-.08.22c-.2.64,0,.76-.35,1.33s-.47.56-1.22.44c0,0,.24,1.16.57,1.33-1,0-1-.78-1.71-.79a1.4,1.4,0,0,0-1.1-.05,1.44,1.44,0,0,0-.8,1.85,1.38,1.38,0,0,0,1.81.81,1.41,1.41,0,0,0,.51-.35,3.7,3.7,0,0,1,.69,1c.08-1.24-.2-1.56-.33-1.71a.2.2,0,0,1,0-.07c.92,0,1.62.58,2.68-.38a1.94,1.94,0,0,1-1.1-.6l.23,0,.21-.06c.4-.15,1-.51,1.06-.92.18-.71-.34-1.21-.15-1.93.14-.52,1.22-1,1.22-1s-1.13,0-1.36.29Z" fill="#fff"/>
      <path d="M7.12,17.62c4.15,4.36,8,3.39,8,3.39l.48-5.86a3.52,3.52,0,0,1-4.34-2.28l1.86-.74a3.57,3.57,0,0,0,2.67,1.6l-.6-1.58a1.61,1.61,0,0,1-1.27-1,1.66,1.66,0,0,1,.25-1.63l-.6-1.58a3.69,3.69,0,0,0-.92,3l-1.86.74A3.64,3.64,0,0,1,12.51,7L8.27,3S4.77,4.94,4.6,11c0,0,1.35,0,1.43.68,0,0,.18,1-1.17,1a2.93,2.93,0,0,0,.26,1.89,2.94,2.94,0,0,0,1.06,1.57,1,1,0,0,1,1.44-.1C8.23,16.85,7.12,17.62,7.12,17.62ZM12,16.8a1,1,0,0,1,1.35.61,1.07,1.07,0,0,1-.59,1.37,1,1,0,0,1-1.35-.61A1.07,1.07,0,0,1,12,16.8ZM8.08,6a1,1,0,0,1,1.34.6A1.06,1.06,0,0,1,8.83,8a1,1,0,0,1-1.35-.6A1.06,1.06,0,0,1,8.08,6ZM7.47,8.5s.06,3.55,1.43,2c0,0,.15,3,1.9,4.62,0,0-1.78-.15,0,2.4A9.6,9.6,0,0,1,7.47,8.5Z" fill="#fff"/>
      <polygon points="24.48 29.33 21.67 21.98 21.64 20.12 19.22 21.08 20.42 22.47 23.23 29.83 23.26 31.68 25.69 30.73 24.48 29.33" fill="#fff"/>
      <path d="M20.16,18l-.44-1.15,2-5.11a1.62,1.62,0,0,0,1.41-1.05,1.65,1.65,0,0,0-.92-2.12,1.61,1.61,0,0,0-2.09.93,1.69,1.69,0,0,0,.35,1.74L19,15l-1.42-3.72a1.65,1.65,0,0,0,.35-1.74,1.61,1.61,0,0,0-2.09-.93,1.65,1.65,0,0,0-.92,2.12,1.63,1.63,0,0,0,1.41,1.05l2,5.11L17.84,18,16.67,19.4l2.34.91v.05l0,0,0,0v-.05l2.3-.91Z" fill="#fff"/>
      <path d="M32,11.69C32.05,11,33.4,11,33.4,11c-.17-6.07-3.67-8-3.67-8L25.49,7a3.64,3.64,0,0,1,1.7,4.67l-1.86-.74a3.69,3.69,0,0,0-.92-3l-.6,1.58a1.66,1.66,0,0,1,.25,1.63,1.63,1.63,0,0,1-1.27,1l-.6,1.58a3.6,3.6,0,0,0,2.68-1.6l1.86.74a3.53,3.53,0,0,1-4.35,2.28L22.86,21s3.87,1,8-3.38c0,0-1.1-.77-.51-1.55a1,1,0,0,1,1.44.11,2.91,2.91,0,0,0,1.07-1.57,3.06,3.06,0,0,0,.26-1.9C31.79,12.64,32,11.69,32,11.69Zm-5.41,6.48a1,1,0,0,1-1.34.61,1.07,1.07,0,0,1-.6-1.37A1,1,0,0,1,26,16.8,1.06,1.06,0,0,1,26.56,18.17Zm2-11.58a1,1,0,1,1,1.94.77,1,1,0,0,1-1.34.6A1.07,1.07,0,0,1,28.58,6.59Zm-1.41,11c1.81-2.55,0-2.39,0-2.39,1.74-1.6,1.89-4.62,1.89-4.62,1.37,1.52,1.43-2,1.43-2A9.61,9.61,0,0,1,27.17,17.54Z" fill="#fff"/>
      <polygon points="16.33 21.98 13.52 29.33 12.32 30.73 14.74 31.68 14.78 29.83 17.58 22.47 18.79 21.08 16.36 20.12 16.33 21.98" fill="#fff"/>
      <path d="M13.35,31.68a1.42,1.42,0,0,0-1.11.05c-.7,0-.67.81-1.71.79.33-.17.57-1.33.57-1.33-.74.12-.94,0-1.22-.44s-.14-.69-.35-1.33a1.43,1.43,0,0,0-.08-.22c.21,0,.77.47.77.48.07-.75-1.22-1.59-1.44-1.76a4.15,4.15,0,0,1-.66-1.66,1.21,1.21,0,0,0-.23,1.51l.77.85c-.23-.25-1.36-.29-1.35-.29s1.08.44,1.21,1c.19.72-.33,1.22-.15,1.93.1.41.66.77,1.06.92l.21.06.24,0a2,2,0,0,1-1.11.6c1.07,1,1.76.35,2.69.38v.07c-.13.15-.41.47-.33,1.71a3.7,3.7,0,0,1,.69-1,1.41,1.41,0,0,0,.51.35,1.39,1.39,0,0,0,1.81-.81A1.43,1.43,0,0,0,13.35,31.68Z" fill="#fff"/>
    </g>
  </g>
</svg>
