<svg id="WHITE_TYPE" xmlns="http://www.w3.org/2000/svg" width="38" height="38" viewBox="0 0 38 38">
  <g id="class_27_copy" data-name="class_27 copy">
    <g>
      <path d="M8.31,19.59A11.54,11.54,0,0,0,6.5,13.93s-2.76,8.64,5.15,11.26C11.65,25.19,8.43,22.18,8.31,19.59Z" fill="#fff"/>
      <path d="M14.11,21.07c-2.09-2.16-3-6.86-3-6.86C8.89,7.3,5,9,5,9c2.81,1.05,1.82,3.28,1.82,3.28,2.15.23,2.73,2.63,2.73,2.63C11.6,20.2,14.11,21.07,14.11,21.07Z" fill="#fff"/>
      <path d="M16.79,29.06a12.13,12.13,0,0,1,2.55-3.29s.47-.52,1-1.1l.22-.21L21,24l.23-.3a4.06,4.06,0,0,1-.65.47c-.29.19-.56.33-.56.33h0c-1.12.73-5.16,2.52-9.66-5.16a20.37,20.37,0,0,0,5,8.5,22.39,22.39,0,0,1-3.85-1,2.11,2.11,0,0,1-.48-.93c-1,.22-2.84-.8-3-.88l-.15-.12S9.32,28.57,16.79,29.06Z" fill="#fff"/>
      <path d="M26.23,26.2a11.12,11.12,0,0,0-3.76,4.48s8.51-1.82,6.7-10.33C29.17,20.35,28.31,24.8,26.23,26.2Z" fill="#fff"/>
      <path d="M21,31.2a3.7,3.7,0,0,1,.8-3.8c3.31-4.49,2.77-7.2,2.77-7.2-.73,3-4.13,6.19-4.13,6.19-4.6,5.45-1.22,8.11-1.22,8.11C18.64,31.42,21,31.2,21,31.2Z" fill="#fff"/>
      <path d="M18.89,12.49a6.69,6.69,0,0,1,3.33,5.07s1.49-2.08,1.5-2.85S21.8,12.48,18.89,12.49Z" fill="#fff"/>
      <path d="M22.45,21.3c.89-.66,1.27-4.22,1.27-4.22-1.67,3.25-5.85,5.07-5.85,5.07A8.2,8.2,0,0,0,22.45,21.3Z" fill="#fff"/>
      <path d="M17.35,12a6,6,0,0,0-3.14,3.22s3.43-1.86,4.87-1A2.39,2.39,0,0,0,17.35,12Z" fill="#fff"/>
      <path d="M13.67,17.08c.1,1.91,2.61,4.23,2.61,4.23a7.33,7.33,0,0,1,.11-5.74C15,15.73,13.62,16.11,13.67,17.08Z" fill="#fff"/>
      <path d="M20.06,19.75A3.23,3.23,0,0,1,17,19a4.42,4.42,0,0,0,.35,2.35A4.68,4.68,0,0,0,20.06,19.75Z" fill="#fff"/>
      <path d="M19.08,18.68l1.13-1.2-1.13-1.19-1.14,1.19Z" fill="#fff"/>
      <path d="M21.09,17.08S19.71,18.77,19.54,19l1.77-.51Z" fill="#fff"/>
      <path d="M19.77,14.71,18.55,15l1.51,1Z" fill="#fff"/>
      <path d="M16.93,17.56l1.56-1.51-1-.67Z" fill="#fff"/>
      <path d="M17.18,18.44l1.11.24L17.47,18Z" fill="#fff"/>
      <path d="M24.36,12.69a1.71,1.71,0,0,0-.29-.08l.29.08Z" fill="#fff"/>
      <path d="M29.77,13.75a11.34,11.34,0,0,1-4-.66s-.67-.17-1.43-.4l-.29-.09-.57-.12-.36-.06a3.86,3.86,0,0,1,.71.35c.3.17.55.34.55.34h0c1.16.66,4.67,3.42.6,11.36a20.44,20.44,0,0,0,4.48-8.82,25.36,25.36,0,0,1,1.14,4,2.08,2.08,0,0,1-.53.91c.7.83.77,3,.77,3.13a1.36,1.36,0,0,0,0,.2S33.12,20.78,29.77,13.75Z" fill="#fff"/>
      <path d="M22.58,6.4a10.25,10.25,0,0,0,5.6,1S22.26.76,16.29,6.81C16.29,6.81,20.35,5.27,22.58,6.4Z" fill="#fff"/>
      <path d="M18.57,11c2.81-.89,7.19.48,7.19.48C32.59,12.8,33,8.39,33,8.39c-2.22,2.09-3.61.12-3.61.12a3.3,3.3,0,0,1-3.5,1.26C20.49,9.14,18.57,11,18.57,11Z" fill="#fff"/>
      <path d="M10.6,9.7a13,13,0,0,1,1.54,3.93s.21.69.42,1.48c0,.1.06.2.08.3s.13.41.2.58.14.35.14.35a4.44,4.44,0,0,1-.09-.81c0-.36,0-.67,0-.67h0c-.08-1.39.35-6,8.92-6.46A18.37,18.37,0,0,0,12.3,9,24.89,24.89,0,0,1,15,5.9a2,2,0,0,1,1,0c.31-1.05,2-2.23,2.15-2.32l.17-.07S14.57,3.05,10.6,9.7Z" fill="#fff"/>
    </g>
  </g>
</svg>
