<svg id="WHITE_TYPE" xmlns="http://www.w3.org/2000/svg" width="38" height="38" viewBox="0 0 38 38">
  <g id="class_34_copy" data-name="class_34 copy">
    <path d="M16.65,13.71a4,4,0,0,1,.7-1.27l-.23-.16L16.74,12l-3.81,2.17a6.92,6.92,0,0,0,.38.66.7.7,0,0,0,.8.31Zm11.17,4.14-.37.06-2.94-1.64-.48.85,2.91,1.67,0,0a1.57,1.57,0,0,0,2.08-.47c.7-1.21-.65-2.13-.65-2.13h0L25.5,14.51l-.53.9L28,17l.13.37c0,.09-.09.18-.14.27a.76.76,0,0,1-.12.19ZM13,15.41l-.53-.9L9.58,16.16h0s-1.35.92-.65,2.13a1.57,1.57,0,0,0,2.08.47l.05,0L14,17.12l-.48-.85-2.94,1.64-.37-.06a.76.76,0,0,1-.12-.19c-.05-.09-.1-.18-.14-.27l.13-.37ZM7.27,29.59a3.32,3.32,0,0,0,1.63-.66,2.63,2.63,0,0,1-1.34-.59l0,0h0C6.81,27.74,6.06,26.6,6,24.37c0,0,0-1.59,0-1.95,0-.84.48-2.43,2.28-2.28,1.41.12,1.63,1.95,1.63,1.95l.77.21c2.84,0,3-1.44,3.27-2.95S16.26,17,16.26,17a1.46,1.46,0,0,1,.18-1.25l2-1.32a3,3,0,0,1,.2-.92c-.24-.22-.53-.47-.83-.71a2.76,2.76,0,0,0-.61,1.28L13.94,16l.77,1.39-3.76,2a1.88,1.88,0,0,1-2.62-.83A2.18,2.18,0,0,1,8.72,16l7.62-4.28-.69-.39-2.28,1.27L13,12.39s-3.58,1.94-5,2.77-1,2.7-1.06,3.65a1,1,0,0,1-1,1s-.35,1.5-.62,2.58a8.66,8.66,0,0,0,0,2.3,8.52,8.52,0,0,0,1.09,4.08L5.89,29,4.75,27.68v1.94l-1.7,1,1.94.3.42,1.92.88-1.76,2,.19L6.84,29.89l.21-.45Zm3.36-9.44c.11,1.14,2,1.28,1.74.85a2.68,2.68,0,0,0-.57-.21c-.6-.5.06-1.32.11-1.39.53-.22,1-.29,1.19.08a1.58,1.58,0,0,1-.7,1.95c-1,.47-1.67.67-2.19-.31C10,20.81,10.26,20.46,10.63,20.15ZM5,17.23c.48.26.38.65,1.09.86,0-.07.15-1.82.15-1.82-.3.15-.7.4-1,.28s-.4-.05-.8.09-.23.61-.23.61A.72.72,0,0,1,5,17.23Zm16.82-7,.5.29C24.93,9,28.08,7.29,28.08,7.29a.41.41,0,0,0-.25-.56s-3.45,2-6,3.48Zm-.47,3.5,2.54,1.45a.71.71,0,0,0,.8-.31,6.92,6.92,0,0,0,.38-.66l-7-4L17.93,9,11.27,5.16s-.43.2-.67.35a1.68,1.68,0,0,0-.47.55l9.49,5.55a3.59,3.59,0,0,1,1.73,2.1Zm10.56,4.38c.71-.21.61-.6,1.09-.86a.72.72,0,0,1,.8,0s.17-.46-.23-.61-.5-.22-.8-.09-.71-.13-1-.28C31.76,16.27,31.94,18,31.91,18.09Zm-.53,6.61c.7-4.41-1.63-3.91-1.63-3.91-1,.22-.84,1.13-1,2.28s-1.32,1.55-1.63,2,0,2.6,0,2.6l1.31.65s2.29.42,2.93-3.58ZM27.87,6.06a1.68,1.68,0,0,0-.47-.55c-.24-.15-.67-.35-.67-.35L20.07,9l0,.25,1.24.71ZM14.19,22.31c.19.1.45.21.74.33a4.24,4.24,0,0,1,2.78-2.9,7.55,7.55,0,0,0-.3-.76A5,5,0,0,0,14.19,22.31Zm6,5.53c.08.28.15.52.21.7a5,5,0,0,0,3.33-3.45L23,24.81A4.22,4.22,0,0,1,20.15,27.84Zm3.9-4.45a4.4,4.4,0,0,1-1.88,0v0a3.18,3.18,0,0,0-2.8-2.88,4.94,4.94,0,0,1,0-1.86,1.29,1.29,0,0,0,0-.94l-.43-.93-.42.93s-.21.23,0,.94a4.25,4.25,0,0,1,0,1.87,3.22,3.22,0,1,0,3.65,3.5v.18a5,5,0,0,1,1.88,0,1.29,1.29,0,0,0,.94,0l.94-.43L25,23.39S24.77,23.18,24.05,23.39Zm-5.06,3a2.67,2.67,0,1,1,2.64-2.69v0A2.65,2.65,0,0,1,19,26.38Zm4-3.63.71-.27A5,5,0,0,0,20.36,19c-.09.21-.18.47-.28.75A4.21,4.21,0,0,1,23,22.75Zm10.25,6.87V27.68L32.11,29l-.52-.21a8.52,8.52,0,0,0,1.09-4.08,8.66,8.66,0,0,0,0-2.3c-.27-1.08-.64-2.59-.62-2.58a1,1,0,0,1-1-1c0-.95.42-2.8-1.06-3.65s-5-2.77-5-2.77l-.36.24L18.4,9.19l.09.8,10.79,6a2.18,2.18,0,0,1,.39,2.5,1.88,1.88,0,0,1-2.62.83l-3.76-2L24.06,16l-3.24-1.88a2.84,2.84,0,0,0-.72-1.41,7.17,7.17,0,0,0-1.76-1.22c-1.91-1-8.17-4.71-8.17-4.71a.41.41,0,0,0-.25.56s8.65,4.62,9.16,5.53a3.7,3.7,0,0,1,.5,1.6l2,1.32A1.46,1.46,0,0,1,21.74,17s2.12.86,2.34,2.36.43,3,3.27,2.95l.77-.21s.21-1.83,1.63-1.95C31.55,20,32,21.58,32,22.42c0,.36,0,1.95,0,1.95-.09,2.23-.84,3.37-1.57,3.95h0l0,0a2.63,2.63,0,0,1-1.34.59,3.32,3.32,0,0,0,1.63.66l.22-.15.21.45-1.39,1.38,1.95-.19.88,1.76L33,30.91,35,30.62Zm-5.47-8.5c-.52,1-1.17.78-2.19.31a1.58,1.58,0,0,1-.7-1.95c.21-.37.66-.3,1.19-.08.05.07.71.89.11,1.39a2.49,2.49,0,0,0-.57.21c-.22.43,1.63.29,1.74-.85C27.74,20.46,28,20.81,27.79,21.12ZM19.37,27h-.85a4.4,4.4,0,0,1,0,1.88c-.21.71,0,.94,0,.94l.42.93.43-.93a1.29,1.29,0,0,0,0-.94A5,5,0,0,1,19.37,27Zm-10.14-4c-.14-1.15,0-2.06-1-2.28,0,0-2.33-.5-1.63,3.91.64,4,2.93,3.58,2.93,3.58l1.31-.65s.31-2.19,0-2.6S9.37,24.22,9.23,23.07Zm5.69,1.8-.73.3a5,5,0,0,0,3.24,3.35c.07-.2.15-.43.24-.71a4.21,4.21,0,0,1-2.75-2.94Zm.78-.63v-.85a4.4,4.4,0,0,1-1.88,0c-.71-.21-.94,0-.94,0l-.93.42.93.43a1.29,1.29,0,0,0,.94,0,5,5,0,0,1,1.88,0Z" fill="#fff" fill-rule="evenodd"/>
  </g>
</svg>
