<svg id="WHITE_TYPE" xmlns="http://www.w3.org/2000/svg" width="38" height="38" viewBox="0 0 38 38">
  <g id="class_33_copy" data-name="class_33 copy">
    <path d="M33.86,5.86C33,7.33,30.81,9.47,27.94,12.6l-10,9.69-.54.53h-.69s-.46-.6,1.65-2.65c0,0,.46-.17.33-1.55,0,0,10-9.64,13.19-13,1.15-1.21,2-2.46,2.88-3.25C34.74,2.31,35.3,3.76,33.86,5.86ZM23.71,7.68A16,16,0,0,0,20,6.48a13.48,13.48,0,0,0-2.22-.18h-.21a23.32,23.32,0,0,0-3.41.26A14.87,14.87,0,0,1,19,5.71a14,14,0,0,1,7.56,2.21s.42.27.85.57l-1,1A15.32,15.32,0,0,0,23.71,7.68ZM18,10.31a2.05,2.05,0,0,1-.34,2.51,2.63,2.63,0,0,1-.18,3.51,2.65,2.65,0,0,1-2,1c-2.11,0-2-1-2-1a2,2,0,0,1-1.56-.1,1.53,1.53,0,0,1-.61-1.49A1.94,1.94,0,0,1,13,12.83c1.22,0,1.28.87,1.28.87a.61.61,0,0,1-.6.6.34.34,0,0,0-.35.37c0,.66,1.1.45,1.1.45,1.62,0,1.46-2,1.46-2,0-1.64-1.79-2-1.79-2a4.64,4.64,0,0,0-3.74,1.07c-2.62,2.59-2.5,4.07-2.5,4.07H8a2.13,2.13,0,0,1,.88-.16,1.51,1.51,0,0,1,1.57,1.57,1.36,1.36,0,0,1-1.57,1.56.55.55,0,0,1-.62-.63s0-.31.62-.31c0,0,.63.15.63-.62,0,0,0-.32-.63-.32a1.52,1.52,0,0,0-1.35.8A3.61,3.61,0,0,0,7,20a13,13,0,0,0,2.18,7.08c0-.16,0-.05.08.12l0,.07-1,1.14H8.12a2.41,2.41,0,0,1-.32-.51,13.5,13.5,0,0,1-2.7-8.15,14.61,14.61,0,0,1,.26-2.84l0,.14a6.42,6.42,0,0,1,.25-1,3.72,3.72,0,0,1,.4-.92h-.1a9.54,9.54,0,0,1,1.45-2.9,8.42,8.42,0,0,1,6.42-4C17.16,8.12,18,10.31,18,10.31ZM9.85,28.14a10.22,10.22,0,0,0,.85-2.05l2.08,0,0,2.08a6.55,6.55,0,0,0-2.29,1.09l-4,4a5.77,5.77,0,0,0-.81,1.85l-2.57.58L4,33a5.88,5.88,0,0,0,1.85-.79Zm8-4.09L16.26,26a2.67,2.67,0,0,0-1,2.12s.5,1.66-.75,1.13a1.56,1.56,0,0,1-.69-.91s-.06-.22-.14-.65-.19-1.28-.19-1.28,0-1.14.35-1.26a3.39,3.39,0,0,1,.95-.09,1.58,1.58,0,0,0,1.67-1.55l1.32,0ZM13.9,20.82a1.77,1.77,0,0,1,1.27-.21,17.4,17.4,0,0,0,2.63-2.4s.58.62-1,2.14l-1.07,1.57a3.25,3.25,0,0,1-.2,1.69c-.15.39-.24.59-1.1.58a2.85,2.85,0,0,0-.88,0,.9.9,0,0,0-.75.57,1.19,1.19,0,0,1-.24.4s-.57.22-2.31-.35A4.56,4.56,0,0,1,9.12,23.6s-.49-1.15,1.71-.36a3.26,3.26,0,0,0,3-.81,1.74,1.74,0,0,1-.21-.63A1.06,1.06,0,0,1,13.9,20.82Zm-2.34,9a13.4,13.4,0,0,0,2.85,1.91,10.74,10.74,0,0,0,3.78,1.2,11.91,11.91,0,0,0,2.14.19h.24A23.22,23.22,0,0,0,24,32.81a13.75,13.75,0,0,1-12.39-1.35l-1-.7,0-.12Zm8.58-.72a2.14,2.14,0,0,1,.34-2.51,2.67,2.67,0,0,1,.18-3.5,2.87,2.87,0,0,1,2.16-1c2,0,1.87,1,1.87,1a2.4,2.4,0,0,1,1.68.1A2,2,0,0,1,27,24.78c-.05,1.54-1.81,1.76-1.81,1.76-1.22,0-1.28-.87-1.28-.87a.61.61,0,0,1,.61-.6.33.33,0,0,0,.34-.37c0-.54-1.1-.45-1.1-.45-1.62,0-1.33,2-1.33,2a2.16,2.16,0,0,0,1.66,2,4.64,4.64,0,0,0,3.74-1.07c2.62-2.59,2.5-4.07,2.5-4.07H30.1a1.8,1.8,0,0,1-.89.18,1.53,1.53,0,0,1-1.57-1.59,1.37,1.37,0,0,1,1.57-1.56s.69,0,.69.63c0,0-.11.31-.69.31,0,0-.63-.15-.63.62,0,0,0,.32.63.32a1.52,1.52,0,0,0,1.35-.8,3.48,3.48,0,0,0,.56-1.83,12.8,12.8,0,0,0-2-6.75l1.28-1.13A14.15,14.15,0,0,1,33,19.68a14.46,14.46,0,0,1-.28,2.81h0c-.08.31-.16.62-.24.86s-.18.63-.29.92h0a9.66,9.66,0,0,1-1.46,2.9,8.56,8.56,0,0,1-6.42,4.09C21.08,31.25,20.14,29.06,20.14,29.06Z" fill="#fff" fill-rule="evenodd"/>
  </g>
</svg>
