<svg id="WHITE_TYPE" xmlns="http://www.w3.org/2000/svg" width="38" height="38" viewBox="0 0 38 38">
  <g id="class_7_copy" data-name="class_7 copy">
    <path d="M19,8.21h0l-.55,1.92L19,9.78l.56.35ZM18,9.5l1-3.13L20.05,9.5s.42-.92,2.06-.63a2,2,0,0,0-1.23-.48l-.42-1.05L19,4.1h0L17.54,7.34l-.42,1.05a2,2,0,0,0-1.22.49C17.54,8.58,18,9.5,18,9.5ZM7.88,18.74a15.64,15.64,0,0,0,1.61,9.48,9.65,9.65,0,0,1,1-4.15,3.4,3.4,0,0,1-1.19,0c-.52-2.47-.29-3.51.11-4.53A20,20,0,0,0,13,15.61a3.56,3.56,0,0,1-2-1,7.13,7.13,0,0,1-3.13,4.11ZM19,11.25h0a3.74,3.74,0,0,1,.39-.87L19,10.11h0s-.33.25-.38.27A3.84,3.84,0,0,1,19,11.25Zm0,5.93h0c-.16.9-.52,1.22-1.46,1.6a7,7,0,0,1,.9,2.54c.1,1.27.55,7.49.56,7.6h0c0-.11.47-6.33.56-7.6a7.19,7.19,0,0,1,.91-2.54c-.94-.39-1.3-.7-1.47-1.61Zm-1.8-2.69c2.27-1.63,1.13-5.93-2-5l-.08,0c-.9,0-1.17-.45-1.17-.45a2.43,2.43,0,0,0,.24,1.07c-.88,1.11.17,2.95,1.51,2.48.5-.18.61-.55.4-1.09a.53.53,0,0,1-.62.5.67.67,0,0,1-.56-.94c.81-1.42,2.94-.11,2.13,1.47a2.25,2.25,0,0,1-1.77,1.09l-.39,0c-.11,0-.23,0-.37,0-1.17-.25-2.31-1.37-2.49-4a4.2,4.2,0,0,1,1.29-1.6,1.66,1.66,0,0,0,.45.66,3.8,3.8,0,0,1,.7-2.09A10.12,10.12,0,0,0,10.71,9a5.27,5.27,0,0,0,1,3.76C10.42,12.07,10,11.37,9.49,9c0,0-6.64,5.08-6.67,11.91a7.85,7.85,0,0,1,3.07-3.14s-1.06,0-1.18-.34C5.52,14.5,9,12.13,9,12.13a7.14,7.14,0,0,0,6.46,3,4.1,4.1,0,0,0,1-.21.7.7,0,0,1,.24.32c.39.95-.91,1.36-1.47.34A2.33,2.33,0,0,0,14,17.11a3.82,3.82,0,0,1,.87-.62c1.92,1.64,3.62-.64,2.35-2Zm10,.14a3.56,3.56,0,0,1-2,1,20.06,20.06,0,0,0,3.57,3.9c.4,1,.62,2.07.11,4.53a3.4,3.4,0,0,1-1.19,0,9.65,9.65,0,0,1,1,4.15,15.55,15.55,0,0,0,1.61-9.48,7.1,7.1,0,0,1-3.14-4.11ZM28.51,9c-.54,2.38-.93,3.08-2.22,3.8A5.41,5.41,0,0,0,27.3,9a10.22,10.22,0,0,0-3.76-2.4,3.73,3.73,0,0,1,.69,2.09A1.52,1.52,0,0,0,24.69,8,4.28,4.28,0,0,1,26,9.64c-.18,2.6-1.33,3.72-2.5,4h-.36l-.39,0A2.22,2.22,0,0,1,21,12.56c-.81-1.57,1.31-2.89,2.12-1.46a.66.66,0,0,1-.56.94.53.53,0,0,1-.61-.51c-.22.55-.11.92.39,1.09,1.35.47,2.39-1.36,1.52-2.48a2.43,2.43,0,0,0,.24-1.07,1.33,1.33,0,0,1-1.17.45l-.09,0c-3.12-.94-4.26,3.36-2,5-1.27,1.37.43,3.65,2.34,2a4.39,4.39,0,0,1,.87.63,2.33,2.33,0,0,0-1.25-1.57c-.56,1-1.86.61-1.47-.35a.73.73,0,0,1,.24-.31,3.64,3.64,0,0,0,1,.2,7.14,7.14,0,0,0,6.46-3s3.51,2.37,4.32,5.29c-.12.37-1.18.35-1.18.35a7.8,7.8,0,0,1,3.07,3.13C35.16,14.06,28.51,9,28.51,9ZM19,13.2h0c-.56,3.28-1.33,4.88-4,4.63a7.91,7.91,0,0,1,2,4.93l.34,7.15a20.12,20.12,0,0,1,1.66,4h0a20.66,20.66,0,0,1,1.67-4L21,22.76a7.91,7.91,0,0,1,2-4.93c-2.67.24-3.44-1.35-4-4.63Zm1.23,7.74c-.21,1-.42,7.16-.42,7.84-.35.77-.8,2.15-.8,2.16s-.46-1.39-.8-2.16c0-.68-.21-6.86-.42-7.84a16.17,16.17,0,0,0-1.12-2.44s2-.12,2.34-2.89c.33,2.77,2.33,2.89,2.33,2.89a16.64,16.64,0,0,0-1.11,2.43Z" fill="#fff" fill-rule="evenodd"/>
  </g>
</svg>
