<svg id="WHITE_TYPE" xmlns="http://www.w3.org/2000/svg" width="38" height="38" viewBox="0 0 38 38">
  <g id="class_5_copy" data-name="class_5 copy">
    <g>
      <path d="M15.93,20.67a1.76,1.76,0,1,0,1.76,1.76A1.76,1.76,0,0,0,15.93,20.67Z" fill="#fff"/>
      <path d="M33.93,18.44h0L24.79,17h0a5.69,5.69,0,0,0-.7-1.52l4.23-5.82h0l-5.83,4.24A5.53,5.53,0,0,0,20.34,13h0L19.85,13l1.07-1.25L19.47,2.59h0L18,11.73,19.08,13l-.54.06h0a5.56,5.56,0,0,0-3.68,2.34,2.54,2.54,0,0,1-.45-1c0-.12,0-.24-.05-.37a1.34,1.34,0,0,1,0-.2,2.56,2.56,0,0,1,0-.39A2.61,2.61,0,0,1,15,12.13l.08-.09L15.2,12a1.63,1.63,0,0,1-.3-.07l-.27-.18h0A4.46,4.46,0,0,1,13,9.59c-4.57,1.1-6.88,6.73-6.88,6.73a11.61,11.61,0,0,1,6.67-9.13,4.54,4.54,0,0,1,1.49-2.6S1.45,7.7,4.55,22.09a4.43,4.43,0,0,1,1.27-.19,4.48,4.48,0,0,1,4.48,4.49A4.36,4.36,0,0,1,10,28.13L14.27,34V28.29S9,23.91,11.38,17.51A6.62,6.62,0,0,0,12.87,24a7.48,7.48,0,0,1-.24-1.31A3.32,3.32,0,0,1,14.07,20a3.49,3.49,0,0,1,.89-.43,3.25,3.25,0,0,1,1-.15,3.32,3.32,0,0,1,3,1.93.83.83,0,0,0,.22,0h.31a2.84,2.84,0,0,0,1.7-5.07,2.13,2.13,0,0,1-1.7,1.07h-.06a2.1,2.1,0,0,1-1.76-1h0s0,0,0,0-.41.24-.63.39a2.42,2.42,0,0,0,1.55,1.4,3.45,3.45,0,0,1-2-.58,3,3,0,0,1-1-1.45h0a2.08,2.08,0,0,1,.24-.34h0c.09-.11.18-.22.28-.32h0a1.7,1.7,0,0,1,.19-.19h0l.1-.09h0a1.19,1.19,0,0,1,.18-.15l.05,0,.09-.07,0,0,.16-.11.07,0,.09-.06.13-.07.08,0,.1-.05.09-.05.13-.06.07,0,.15-.06.06,0,.14,0,.06,0,.18-.05h0l.16,0h.05v1.75h0a.91.91,0,0,0,.9.89.89.89,0,0,0,.9-.89h0V14a4.47,4.47,0,0,1,1.81.79l-.09,1.07h0l1.09-.08A4.58,4.58,0,0,1,24,17.67l-.87.74h0l.91.78a4.64,4.64,0,0,1-.8,2l-1.2-.1h0l.1,1.18a5.77,5.77,0,0,1-1.55.71,1.32,1.32,0,0,0-1.06-.53h-.1A1.33,1.33,0,1,0,20.81,24a8,8,0,0,0,1.7-.8l5.76,4.16h0L24.09,21.6a5.65,5.65,0,0,0,.76-1.74Z" fill="#fff"/>
      <path d="M20.43,32.2a5.8,5.8,0,0,1-2.27,1.55l1.35,1.66L21,33.6l-.55-.69Z" fill="#fff"/>
      <path d="M20,25.61a1.38,1.38,0,0,1-1,0l-.79,1.44a2.88,2.88,0,0,1,.36.7h0v.74a7.18,7.18,0,0,0,2-1.78Z" fill="#fff"/>
      <path d="M18.59,31.32v1.5a7.26,7.26,0,0,0,1.84-1.65V27.94a6.2,6.2,0,0,1-1.84,1.31Z" fill="#fff"/>
    </g>
  </g>
</svg>
