<svg id="WHITE_TYPE" xmlns="http://www.w3.org/2000/svg" width="38" height="38" viewBox="0 0 38 38">
  <g id="class_1_copy" data-name="class_1 copy">
    <g>
      <circle cx="18.96" cy="19.03" r="0.86" fill="#fff"/>
      <g>
        <path d="M16.27,11a1.19,1.19,0,1,1-1.19,1.19A1.19,1.19,0,0,1,16.27,11Z" fill="#fff"/>
        <path d="M3.67,20.18a2.45,2.45,0,0,0,.11.41,3.15,3.15,0,0,0,.45.86,2.93,2.93,0,0,0,.37.42A3.72,3.72,0,0,0,7.32,23a3.67,3.67,0,0,0,1.1-.17h0a3.76,3.76,0,0,0,2-1.53,10.89,10.89,0,0,0,1.68-4.73c.21-1.23.37-2.26.58-3.13,0,0,0,0,0-.05h0l0,0,0-.09c0-.1.08-.24.12-.38a.52.52,0,0,1,0-.11c.2-.71,1-2.88,3.27-2.84h.07a2.32,2.32,0,0,1,1.08,4.35,2.3,2.3,0,0,1-2.59-.22,1.94,1.94,0,0,0,.1.19l.05.08h0l0,0a2.37,2.37,0,0,0,2.62.87h0a3.57,3.57,0,0,0,2.51-3.45,3.69,3.69,0,0,0-3.66-3.69h-.22a4.5,4.5,0,0,0-.82.09,5.52,5.52,0,0,0-4,3.11,7.41,7.41,0,0,0-.36.89l-.09.26s-.1.42-.25,1c-.35,2-.58,3.53-.87,4.61A4.68,4.68,0,0,1,9,19.94a2.26,2.26,0,0,1-.65.53,3,3,0,0,1-1.51.45h-.1a3.08,3.08,0,0,1-1.54-.41,3.75,3.75,0,0,1-1.54-2.39c0,.27,0,.56,0,.84s0,.77,0,1.14c0,0,0,.06,0,.09Z" fill="#fff"/>
        <path d="M8.87,30.65a16.34,16.34,0,0,1-3.1-6.24c0-.16-.06-.4-.06-.4A4,4,0,0,1,4,22.38a4.71,4.71,0,0,0,.11.51h0A15.54,15.54,0,0,0,8.87,30.65Z" fill="#fff"/>
        <path d="M19.1,3.67A15.5,15.5,0,0,0,3.86,16.31a3.65,3.65,0,0,0,1.13,2s0,0,0,0l.09.06.05,0,0,0,.16.09A16.41,16.41,0,0,1,21.64,4.14c.51,0,1,0,1.52.07A15.59,15.59,0,0,0,19.1,3.67Z" fill="#fff"/>
      </g>
      <g>
        <path d="M21.73,24.62a1.2,1.2,0,1,1-1.19,1.19A1.19,1.19,0,0,1,21.73,24.62Z" fill="#fff"/>
        <path d="M34.33,17.82a2.45,2.45,0,0,0-.11-.41,3.5,3.5,0,0,0-.44-.86,3.7,3.7,0,0,0-.37-.42A3.75,3.75,0,0,0,30.69,15a3.9,3.9,0,0,0-1.1.17h0a3.76,3.76,0,0,0-2,1.53,10.89,10.89,0,0,0-1.68,4.73c-.2,1.23-.37,2.26-.58,3.13,0,0,0,0,0,.05h0a.06.06,0,0,1,0,0l0,.09-.11.38,0,.11c-.2.71-1,2.88-3.27,2.84h-.07a2.33,2.33,0,0,1-1.07-4.36,2.26,2.26,0,0,1,1.12-.3,2.3,2.3,0,0,1,1.47.53,1.1,1.1,0,0,0-.11-.2l-.05-.08h0l0,0a2.35,2.35,0,0,0-2.61-.87h0A3.57,3.57,0,0,0,18,26.17a3.69,3.69,0,0,0,3.66,3.69h.22a4.68,4.68,0,0,0,.83-.09,5.53,5.53,0,0,0,4-3.11,7.41,7.41,0,0,0,.36-.89l.09-.26s.1-.42.25-1c.35-2,.58-3.53.87-4.61A4.56,4.56,0,0,1,29,18.07a2.26,2.26,0,0,1,.65-.54,3,3,0,0,1,1.51-.45h.1a3,3,0,0,1,1.54.42,3.73,3.73,0,0,1,1.54,2.38c0-.27,0-.55,0-.83s0-.77,0-1.15c0,0,0-.06,0-.09Z" fill="#fff"/>
        <path d="M29.13,7.35a16.34,16.34,0,0,1,3.1,6.24c0,.16.07.4.07.4A4,4,0,0,1,34,15.62a3.11,3.11,0,0,0-.11-.51h0A15.46,15.46,0,0,0,29.13,7.35Z" fill="#fff"/>
        <path d="M18.9,34.33A15.5,15.5,0,0,0,34.14,21.69a3.53,3.53,0,0,0-1.13-2l0,0-.09-.06,0,0,0,0-.16-.09A16.41,16.41,0,0,1,16.36,33.86c-.51,0-1,0-1.52-.07A15.13,15.13,0,0,0,18.9,34.33Z" fill="#fff"/>
      </g>
      <path d="M18.54,20.83h0Z" fill="#fff"/>
      <path d="M28.17,10.89s.06-4.15-2.66-6c0,0,3.62,7.44-4.7,11.14a3.46,3.46,0,0,0-1.89-.55,3.5,3.5,0,0,0-3.49,3.27,8.83,8.83,0,0,0-5.67,8.39s-.06,4.15,2.66,6c0,0-3.61-7.42,4.67-11.13a3.5,3.5,0,0,0,5.32-2.69A8.87,8.87,0,0,0,28.17,10.89Zm-7.59,7.28h0a1.85,1.85,0,0,1-1.65,2.7,1.66,1.66,0,0,1-.32,0h0l-.06,0h0a5.72,5.72,0,0,0-1.39-.1A5.08,5.08,0,0,0,13.87,22a4,4,0,0,1,3.42-2.13,1.91,1.91,0,0,1-.22-.88,1.85,1.85,0,0,1,1.85-1.86,1.82,1.82,0,0,1,.52.08h0A5.6,5.6,0,0,0,24.18,16,4,4,0,0,1,20.58,18.17Z" fill="#fff"/>
      <path d="M18.6,20.84Z" fill="#fff"/>
    </g>
  </g>
</svg>
