<svg id="WHITE_TYPE" xmlns="http://www.w3.org/2000/svg" width="38" height="38" viewBox="0 0 38 38">
  <g id="class_25_copy" data-name="class_25 copy">
    <g>
      <path d="M15.6,10.32a2.24,2.24,0,0,0,1.74,1.58,1.85,1.85,0,0,0,1.54-1.34c.1-.92.33-1.5-.36-2.33A3.93,3.93,0,0,1,17.3,5.6a2.17,2.17,0,0,1,1.88-2.09c.69,0,1.22.17,1.94,1.13.53.72,1.35,2.29,3,2.57.69,0,1.71.06,3.35-2.5,0,0-.92,2.73-3.06,3.28,0,0,.56.17.85.28.73.06,1.25,0,2.83-1.13,0,0-.82,1-1.54,1.88a3.63,3.63,0,0,1-2.31-.44,15.08,15.08,0,0,1-3-2.71c-.72-1-.72-1.13-1.81-1.16a1.28,1.28,0,0,0-1,1.33,1.73,1.73,0,0,0,1.35,1.3A4.21,4.21,0,0,0,21,6.52a12.26,12.26,0,0,0-1.18,1.89,3,3,0,0,0,.13,2.29,1.7,1.7,0,0,1,.59.31s-.49.38-.72.61a5.52,5.52,0,0,1-2,.79,2.61,2.61,0,0,1-1.52-.61A2.88,2.88,0,0,1,15.6,10.32Z" fill="#fff"/>
      <path d="M17.21,13.44a4.44,4.44,0,0,0,.62,1.23,13.26,13.26,0,0,0,3.39-3.32,11.92,11.92,0,0,1-2.43,1.81C18.1,13.44,17.7,13.61,17.21,13.44Z" fill="#fff"/>
      <path d="M20.07,14a13,13,0,0,1-1.84,1.78,1.84,1.84,0,0,0-1,1.47c.1.69.39,1.44,1.25,1.48a1.14,1.14,0,0,1-.73-1,1.29,1.29,0,0,1,1.12-1.13c.85.68,1.15.82,1.22,1.81-.46.93-.76,1.41-1.61,1.44a1.43,1.43,0,0,0-1.25-.24s.85.21,1,.79a1.15,1.15,0,0,1,.19.89s.53.72,1,.82c0,0,0,.27-.43.27a2.63,2.63,0,0,1-1.32-1c-.46-.62-.49-.45-1.15-1.13a38.64,38.64,0,0,1,1.32,5.1c.46,2.43,1,5.31,1.41,9.11a39.2,39.2,0,0,1,.86-6.92A25,25,0,0,1,21,24a2.09,2.09,0,0,1-.85.86c-.4-.31-.73-.41-.76-1.07A2.34,2.34,0,0,1,20.6,22.2s-1.16-.17-1.39-1.1c.17-.44.33-.47.76-.75A2.53,2.53,0,0,0,21,18.47a3.11,3.11,0,0,0-1-2.16L19.77,16S19.41,15.32,20.07,14Z" fill="#fff"/>
      <path d="M5.1,9.77a30,30,0,0,1,6.12,5.38,6,6,0,0,1,2.83.66,1.67,1.67,0,0,1,.72,1.46,1.05,1.05,0,0,1-.79,1,1,1,0,0,1-1.23-.15,1.93,1.93,0,0,0,1.76.7,1.37,1.37,0,0,0,1.09-1.23,3.25,3.25,0,0,0-1-1.8s0-.25.33-.32a1.84,1.84,0,0,1,.75,0,10,10,0,0,1-2.33-2.83A37.17,37.17,0,0,1,5.1,9.77Z" fill="#fff"/>
      <path d="M5.1,28.39A30,30,0,0,0,11.22,23a6,6,0,0,0,2.83-.66,1.69,1.69,0,0,0,.72-1.46,1.07,1.07,0,0,0-.79-1,1,1,0,0,0-1.23.16,1.93,1.93,0,0,1,1.76-.7,1.37,1.37,0,0,1,1.09,1.23,3.25,3.25,0,0,1-1,1.8s0,.25.33.32a1.84,1.84,0,0,0,.75,0,10,10,0,0,0-2.33,2.83A37.17,37.17,0,0,0,5.1,28.39Z" fill="#fff"/>
      <path d="M32.9,9.77a30,30,0,0,0-6.12,5.38,6,6,0,0,0-2.83.66,1.7,1.7,0,0,0-.72,1.46,1.05,1.05,0,0,0,.79,1,1,1,0,0,0,1.23-.15,1.93,1.93,0,0,1-1.76.7,1.38,1.38,0,0,1-1.09-1.23,3.25,3.25,0,0,1,1-1.8s0-.25-.33-.32a1.84,1.84,0,0,0-.75,0,10,10,0,0,0,2.33-2.83A37.35,37.35,0,0,0,32.9,9.77Z" fill="#fff"/>
      <path d="M32.9,28.39A30,30,0,0,1,26.78,23,6,6,0,0,1,24,22.35a1.71,1.71,0,0,1-.72-1.46,1.07,1.07,0,0,1,.79-1,1,1,0,0,1,1.23.16,1.93,1.93,0,0,0-1.76-.7,1.38,1.38,0,0,0-1.09,1.23,3.25,3.25,0,0,0,1,1.8s0,.25-.33.32a1.84,1.84,0,0,1-.75,0,10,10,0,0,1,2.33,2.83A37.35,37.35,0,0,1,32.9,28.39Z" fill="#fff"/>
    </g>
  </g>
</svg>
