<svg id="WHITE_TYPE" xmlns="http://www.w3.org/2000/svg" width="38" height="38" viewBox="0 0 38 38">
  <g id="class_11_copy" data-name="class_11 copy">
    <path d="M21.72,11.08,20.64,9.8a4.09,4.09,0,0,0-2,2.18A3.8,3.8,0,0,0,16.67,9.8l-1.08,1.28s1.47.7,1.47,4.05c0,0,.12,4.54-2.17,5.93,0,0-2.54,1.23-4.35-.45a1.67,1.67,0,0,1-.25-.34,1.42,1.42,0,0,0-.47-2.76,1.44,1.44,0,0,0-1.27.76h0a9,9,0,0,0-.37,6.88,10.32,10.32,0,0,0,2,3.74l.28.35h0a11.16,11.16,0,0,0,8.2,3.53A10.68,10.68,0,0,0,29.62,22.37c0-.33,0-.65,0-1a6.66,6.66,0,0,0-.78-3.1,1.43,1.43,0,1,0-1.78,2,2.11,2.11,0,0,1-.25.34c-1.81,1.68-4.35.45-4.35.45-2.29-1.39-2.17-5.93-2.17-5.93C20.25,11.68,21.72,11.08,21.72,11.08ZM17.44,23.61a35.57,35.57,0,0,0,1.22-3.71,34,34,0,0,0,1.23,3.71A1.9,1.9,0,0,1,19.45,26a5,5,0,0,0-.52.86,18.69,18.69,0,0,0-.27-3.1,19.39,19.39,0,0,0-.26,3.1,5.76,5.76,0,0,0-.52-.86A1.9,1.9,0,0,1,17.44,23.61ZM15,23.52a2.89,2.89,0,0,0,.88.26,2.14,2.14,0,0,1,.87.26,2.13,2.13,0,0,0,0,1.29,4.76,4.76,0,0,0-1.48-.26A1.94,1.94,0,0,1,15,23.52Zm-.61,2.15a8.9,8.9,0,0,1,1.66.09c1.84.3,2.36,2.67,2.36,2.67A3.42,3.42,0,0,0,16.92,28a3.22,3.22,0,0,1-1.75-.6,12.83,12.83,0,0,1-2.1-1.81A12,12,0,0,0,14.38,25.67Zm13.13-2.48a.22.22,0,0,1,0-.08.29.29,0,0,1,.58,0h0A9.29,9.29,0,0,1,18.7,31.2a9.29,9.29,0,0,1-9.41-8.09h0a.29.29,0,1,1,.58,0,.22.22,0,0,1,0,.08,8.72,8.72,0,0,0,8.81,7.43A8.72,8.72,0,0,0,27.51,23.19ZM20.59,24a2.26,2.26,0,0,1,.87-.26,2.79,2.79,0,0,0,.87-.26,2,2,0,0,1-.26,1.55,4.43,4.43,0,0,0-1.48.26A2.22,2.22,0,0,0,20.59,24Zm.69,1.72a9,9,0,0,1,1.66-.09A4.76,4.76,0,0,1,24,25.39a7.24,7.24,0,0,1-1.87,2,3.22,3.22,0,0,1-1.75.6,3.42,3.42,0,0,0-1.48.43S19.45,26.06,21.28,25.76ZM28.47,9.14a14.89,14.89,0,0,0-5.58-3l.11,0,.12.12h-.06l.24.2a10,10,0,0,1,2.9,6.37,10.1,10.1,0,0,1,4.48,8.78A11.83,11.83,0,0,1,18.82,33.33h0a13,13,0,0,1-3-25.69,2.93,2.93,0,0,0,1.12,1.53h0a5,5,0,0,1,1.71,1.66,4.91,4.91,0,0,1,1.69-1.66v0A3,3,0,0,0,21.4,7.71h0a.19.19,0,0,0,0-.07.84.84,0,0,0,0-.17h0a2.88,2.88,0,0,0-.08-1.6h0A2.94,2.94,0,0,0,19.51,4a.93.93,0,0,0-1.85,0,3,3,0,0,0-1.9,2,14.52,14.52,0,0,0,3,28.72H19A14.62,14.62,0,0,0,33.7,20.25,14.41,14.41,0,0,0,28.47,9.14Zm-10.69-4a.89.89,0,0,0,1.63,0,1.84,1.84,0,0,1,1.06,1.66,1.82,1.82,0,0,1-.82,1.53l-1-1.52-1,1.52a1.82,1.82,0,0,1,.19-3.16Z" fill="#fff"/>
  </g>
</svg>
