<svg id="WHITE_TYPE" xmlns="http://www.w3.org/2000/svg" width="38" height="38" viewBox="0 0 38 38">
  <g id="class_15_copy" data-name="class_15 copy">
    <g>
      <g id="왼쪽">
        <g id="Shape_1591_copy_25" data-name="Shape 1591 copy 25">
          <path d="M18.22,27.82a1.37,1.37,0,0,1,.13.2l.25-.18Zm-2.9,1.79a7,7,0,0,1-5.13,2.24c-2.28,0-3-.7-3.63-.53.59-.17.19-.77,2.09-2a5.84,5.84,0,0,1,.65-.38c-.34-.14-.69-.29-1-.47-.35.19-.7.4-1,.62-2.8,1.85-3.71,3.18-4.57,3.43.86-.25,2.35.38,5.71.42s6-1,7.42-2.56q.45-.5.87-.9c-.38,0-.8,0-1.26.07Z" fill="#fff"/>
        </g>
        <g id="Shape_1591_copy_26" data-name="Shape 1591 copy 26">
          <path d="M16.2,28.13l-1.67,0a10.31,10.31,0,0,1-6.31-2.52c-2.12-1.77-2-2.52-2.68-2.79.67.27,1.07-.05,3.76.15h.12L8.68,21.8H2c.93.36,1.83,1.91,4.78,4.22s7.08,3.2,9.39,2.75l.89-.15S16.35,28.4,16.2,28.13Z" fill="#fff"/>
        </g>
        <g id="Shape_1591_copy_19" data-name="Shape 1591 copy 19">
          <path d="M15.88,26.78c-.15-.24-.28-.47-.41-.71l-.78-.47c-2.34-1.45-2.95-2.23-4.47-5.82-1.43-3.38-.83-5.11-1.38-5.92.55.8,2.11,1.14,4.93,3.37.09-.5.21-1,.35-1.54-.41-.39-.85-.76-1.31-1.13-3.76-3-5.65-3.68-6.74-4.77.65,1.39.56,3.43,2,8s4,7.78,6.8,9c.51.22,1,.45,1.43.69Z" fill="#fff"/>
        </g>
        <g id="Shape_1613" data-name="Shape 1613">
          <path d="M15.88,27.69a6.36,6.36,0,0,1-1.27-.47,2.59,2.59,0,0,0-2.11,0,3.24,3.24,0,0,0,1.35.43,1.87,1.87,0,0,1,.34,0,2.55,2.55,0,0,0,.39,0,4,4,0,0,1,1.38.06Z" fill="#fff"/>
        </g>
      </g>
      <g id="오른쪽">
        <g id="Shape_1591_copy_25-2" data-name="Shape 1591 copy 25">
          <path d="M30.77,29.06c-.35-.22-.69-.43-1-.62-.34.17-.69.33-1,.47a4.61,4.61,0,0,1,.65.38c1.9,1.26,1.5,1.86,2.08,2-.58-.17-1.34.5-3.62.53a7,7,0,0,1-5.13-2.24l-.09-.09c-.45,0-.87-.06-1.25-.07.28.27.57.57.86.9,1.4,1.57,4.07,2.61,7.43,2.56s4.85-.67,5.71-.42C34.48,32.24,33.56,30.91,30.77,29.06ZM19.65,28l.13-.2-.38,0Z" fill="#fff"/>
        </g>
        <g id="Shape_1591_copy_26-2" data-name="Shape 1591 copy 26">
          <path d="M29.32,21.8,28.58,23h.12c2.69-.2,3.09.12,3.76-.15-.67.27-.56,1-2.68,2.79a10.31,10.31,0,0,1-6.31,2.52l-1.67,0c-.15.27-.86.49-.86.49l.89.15c2.31.45,6.45-.45,9.39-2.75S35.07,22.16,36,21.8Z" fill="#fff"/>
        </g>
        <g id="Shape_1591_copy_19-2" data-name="Shape 1591 copy 19">
          <path d="M25.19,14.56c-.46.37-.9.74-1.31,1.13.14.53.26,1,.35,1.54,2.82-2.23,4.38-2.57,4.93-3.37-.55.81.05,2.54-1.38,5.92-1.52,3.59-2.13,4.37-4.47,5.82l-.78.47c-.13.24-.26.47-.41.71l-.4.71c.44-.23.92-.47,1.43-.69,2.77-1.2,5.37-4.39,6.8-9s1.33-6.62,2-8C30.84,10.88,29,11.56,25.19,14.56Z" fill="#fff"/>
        </g>
        <g id="Shape_1613-2" data-name="Shape 1613">
          <path d="M23.38,27.22a6.08,6.08,0,0,1-1.26.47l-.08.06a4,4,0,0,1,1.38-.06,2.61,2.61,0,0,0,.39,0,1.87,1.87,0,0,1,.34,0,3.24,3.24,0,0,0,1.35-.43A2.61,2.61,0,0,0,23.38,27.22Z" fill="#fff"/>
        </g>
        <g id="Shape_1614" data-name="Shape 1614">
          <path d="M22.5,23.94c0,.21.13.14.13.14A12.19,12.19,0,0,1,25.1,23a3.18,3.18,0,0,0,1-1.37A9,9,0,0,0,22.5,23.94Z" fill="#fff"/>
        </g>
        <g id="Shape_1614_copy" data-name="Shape 1614 copy">
          <path d="M11.8,21.75a3.17,3.17,0,0,0,1,1.36,12.19,12.19,0,0,1,2.47,1.1s.15.07.14-.14A8.9,8.9,0,0,0,11.8,21.75Z" fill="#fff"/>
        </g>
      </g>
      <g id="중앙">
        <g id="Shape_1591_copy_18" data-name="Shape 1591 copy 18">
          <path d="M22,13.18c-1.45-4.7-2.66-6.44-3-8v0c-.34,1.56-1.55,3.3-3,8s-2,7.11.61,11.92a44.62,44.62,0,0,1,2.39,5v0a0,0,0,0,0,0,0,0,0,0,0,1,0,0v0a45.58,45.58,0,0,1,2.4-5C24.1,20.29,23.53,18,22,13.18ZM20.87,23.94A18.82,18.82,0,0,0,19,27.7a17.92,17.92,0,0,0-1.83-3.76c-1.29-2.05-1.6-4.09-.46-7.77,1.07-3.47,2.17-4.76,2.29-5.76.13,1,1.23,2.29,2.3,5.76C22.46,19.85,22.16,21.89,20.87,23.94Z" fill="#fff"/>
        </g>
        <g id="Shape_1611" data-name="Shape 1611">
          <path d="M20.69,20.3a8.38,8.38,0,0,0-1,3.95C21,22.36,20.57,22,20.69,20.3Z" fill="#fff"/>
        </g>
        <g id="Shape_1611_copy" data-name="Shape 1611 copy">
          <path d="M17.33,20.3c.12,1.69-.33,2.06,1,3.95A8.53,8.53,0,0,0,17.33,20.3Z" fill="#fff"/>
        </g>
      </g>
    </g>
  </g>
</svg>
