<svg id="WHITE_TYPE" xmlns="http://www.w3.org/2000/svg" width="38" height="38" viewBox="0 0 38 38">
  <g id="class_21_copy" data-name="class_21 copy">
    <g>
      <path d="M18.59,16.68s2.07-3.76-2.12-8.3c0,0-1.38,2.54-.71,4.36A6.33,6.33,0,0,0,18.59,16.68Z" fill="#fff"/>
      <path d="M12,11.27l1.53,2.94c2.34,3.87,4.78,3,4.78,3a4.59,4.59,0,0,1-2.15-2,19.16,19.16,0,0,0-1.28-2.55A3.78,3.78,0,0,0,12,11.27Z" fill="#fff"/>
      <path d="M25.9,16.75c1.76-.87,2.51-3.65,2.51-3.65-6.18.44-7.29,4.57-7.29,4.57A6.36,6.36,0,0,0,25.9,16.75Z" fill="#fff"/>
      <path d="M22.92,23.38c.1-3.36-2.1-4.19-2.1-4.19a3.35,3.35,0,0,0,.24,2.63C21.44,22.81,22.92,23.38,22.92,23.38Z" fill="#fff"/>
      <path d="M15.16,19.64A3.42,3.42,0,0,0,17.21,18s-2.14-1-4.47,1.49A3.59,3.59,0,0,0,15.16,19.64Z" fill="#fff"/>
      <path d="M33.53,17s-.46-1-1.19-1.24a2.48,2.48,0,0,0-1.88-.06A2.57,2.57,0,0,0,33.53,17Z" fill="#fff"/>
      <path d="M34,17a1.9,1.9,0,0,0,1.35-.55,2.25,2.25,0,0,0,.55-1.61A2,2,0,0,0,34,17Z" fill="#fff"/>
      <path d="M10.06,9.66c.73-.62.67-.9,1-2.14a3.23,3.23,0,0,0-3.19,2.57A3.24,3.24,0,0,0,10.06,9.66Z" fill="#fff"/>
      <path d="M7.32,12.38c.24-1.1,0-1.32-.54-2.75a3.76,3.76,0,0,0-1.16,4.66S7.08,13.47,7.32,12.38Z" fill="#fff"/>
      <path d="M13,7.83c1.68-.14,1.46-1.56,1.46-1.56a3.47,3.47,0,0,0-2.3.74,3.48,3.48,0,0,0-.67,1.91C12,8.35,12.38,7.88,13,7.83Z" fill="#fff"/>
      <path d="M8.1,14.66a3.62,3.62,0,0,0-.19-2.8c-.41,1.05-.39,1.73-1.21,2.19-2.19,1.2-1.39,3-1.39,3A6,6,0,0,0,8.1,14.66Z" fill="#fff"/>
      <path d="M32.43,22.14A3.2,3.2,0,0,0,34,20.43c.29-1.09.1-1.36-.23-2.9C33.8,17.53,31.62,18.81,32.43,22.14Z" fill="#fff"/>
      <path d="M33.42,22.11a2.31,2.31,0,0,0-1.2,2.62,4.63,4.63,0,0,0,2.21-2,3.94,3.94,0,0,0,0-2.55C34.08,21.14,34.06,21.76,33.42,22.11Z" fill="#fff"/>
      <path d="M9.57,27.55a3.72,3.72,0,0,0,.94,1.79,2.79,2.79,0,0,0,1.85.84C12.17,29.38,12.38,28.17,9.57,27.55Z" fill="#fff"/>
      <path d="M6.83,24.27a4.38,4.38,0,0,0,.35,3,4.26,4.26,0,0,0,2.57,2,10.35,10.35,0,0,1-.82-2C8.62,26.24,8.56,24.9,6.83,24.27Z" fill="#fff"/>
      <path d="M6.78,22.54A2.79,2.79,0,0,0,10,24.67,3,3,0,0,0,6.78,22.54Z" fill="#fff"/>
      <path d="M3.67,25.52a3,3,0,0,0,1.82-.84,2.85,2.85,0,0,0,.76-2.05A3,3,0,0,0,3.67,25.52Z" fill="#fff"/>
      <path d="M6,22.1a3,3,0,0,0-3.85-.54,2.93,2.93,0,0,0,1.71,1A2.86,2.86,0,0,0,6,22.1Z" fill="#fff"/>
      <path d="M9.84,19.61a3,3,0,0,0-1.95.45A2.85,2.85,0,0,0,6.71,21.9,3,3,0,0,0,9.84,19.61Z" fill="#fff"/>
      <path d="M5.3,17.92a2.92,2.92,0,0,0-.3,2,2.84,2.84,0,0,0,1.28,1.77A3,3,0,0,0,5.3,17.92Z" fill="#fff"/>
      <path d="M18.32,31.14a1.34,1.34,0,0,0,.44.8,1.27,1.27,0,0,0,1,.28A1.36,1.36,0,0,0,18.32,31.14Z" fill="#fff"/>
      <path d="M17.11,32.7a1.4,1.4,0,0,0,.77-.5,1.3,1.3,0,0,0,.2-1A1.33,1.33,0,0,0,17.11,32.7Z" fill="#fff"/>
      <path d="M17.93,30.94a1.37,1.37,0,0,0-1.76-.25,1.37,1.37,0,0,0,.78.48A1.35,1.35,0,0,0,17.93,30.94Z" fill="#fff"/>
      <path d="M18.44,30.94a1.37,1.37,0,0,0,1.32-1.19,1.37,1.37,0,0,0-.87.3A1.29,1.29,0,0,0,18.44,30.94Z" fill="#fff"/>
      <path d="M17.75,29a1.35,1.35,0,0,0-.14.9,1.37,1.37,0,0,0,.59.81A1.35,1.35,0,0,0,17.75,29Z" fill="#fff"/>
      <path d="M26.52,19.36l3.15-1.1a3.76,3.76,0,0,0-3-1,20.23,20.23,0,0,0-2.69,1,4.59,4.59,0,0,1-3,0S22.14,20.57,26.52,19.36Z" fill="#fff"/>
      <path d="M23.06,13.74a14.13,14.13,0,0,1,2.05-2.39,5.26,5.26,0,0,1-1.36-.26,3.32,3.32,0,0,1-.92-.39,21.92,21.92,0,0,0-2.07,2.83S10.52,29.76,15.62,35C15.62,35,13.2,28.41,23.06,13.74Z" fill="#fff"/>
      <path d="M23.27,10.29l.29.17a2.92,2.92,0,0,0,.49.19l.18,0,.23.05a1.94,1.94,0,0,0,.42.07,3.62,3.62,0,0,0,.57,0,.11.11,0,0,0,.08,0l.06-.07.14-.22c.15-.2.29-.4.42-.61,0,0,.25-.35.55-.86a5.29,5.29,0,0,0,.82-2h0c0-.21,0-.22,0-.42a4.15,4.15,0,0,1,0-.49.54.54,0,0,1,.06-.3,1,1,0,0,1,.29-.3l-.13,0h-.21a1.28,1.28,0,0,1,.19,0h-.1c-.07,0-.09,0-.15-.07a.46.46,0,0,1-.05-.2s-.33-.07-.42-.64V4.32a.26.26,0,0,1,0-.28,1.76,1.76,0,0,1,.22-.3,3,3,0,0,1,.89-.44,4.89,4.89,0,0,1,.64-.14l.44-.06h0l-.27,0a3.75,3.75,0,0,0-.75,0,2.58,2.58,0,0,0-.39,0l-.24,0a4.07,4.07,0,0,0-.58.14l-.3.1a2.73,2.73,0,0,0-.54.27,3.5,3.5,0,0,0-.82.61L25,4.45a.28.28,0,0,0-.08.15.8.8,0,0,1-.1.43,3,3,0,0,1-.27.5v0h0l.15-.07h0a.08.08,0,0,1,0,0,1.46,1.46,0,0,1,0,.36,2.55,2.55,0,0,1-.15.52s0,0,0,0V6.33h0V6.4a1.77,1.77,0,0,1,.16-.22A2,2,0,0,1,25,5.91a1.58,1.58,0,0,1,.15-.12,1.05,1.05,0,0,1,.57-.23.49.49,0,0,1,.48.18.65.65,0,0,1,.12.37.81.81,0,0,1,0,.22,2.81,2.81,0,0,1-.08.71,4.75,4.75,0,0,1-.2.64,6.23,6.23,0,0,1-.78,1.25,2.84,2.84,0,0,1-.49.49,2.49,2.49,0,0,1-.47.33,2,2,0,0,1-.45.24,3.75,3.75,0,0,1-.6.24l0,0h0S23.26,10.28,23.27,10.29Z" fill="#fff"/>
      <path d="M31.76,25.36c-1.33-.29-2.13.87-2.32,2.07a.36.36,0,0,1,0,.1,4.09,4.09,0,0,0-3,1.13,4.62,4.62,0,0,0-1.23,1.67h0v-.24c-.07.11-.13.11-.18.22s-1.23,2.57-2.81,1.4a1.4,1.4,0,0,1-.39-.65.72.72,0,0,1,.56-.85.42.42,0,0,1,.51.3.29.29,0,0,1-.16.27c-.15.06-.31,0-.42,0s-.13.08,0,.2a.6.6,0,0,0,.65.23.85.85,0,0,0,.44-1.09,1.13,1.13,0,0,0-1.53-.56,1.67,1.67,0,0,0,.12,3.13c1.62.78,3.11-.48,3.82-2a4.79,4.79,0,0,1,.3-.51,3,3,0,0,0,3.42-1,5.64,5.64,0,0,0,.54-1,8.68,8.68,0,0,1,2.24.66,6.24,6.24,0,0,0-2.07-1.16l0-.14s.35-2,1.73-1.5a.76.76,0,0,1,.38.47.59.59,0,0,1-.31.69.34.34,0,0,1-.44-.14.2.2,0,0,1,.06-.22c.09-.07.23,0,.31-.05s.07-.09,0-.15a.45.45,0,0,0-.51-.06.54.54,0,0,0-.07.81.75.75,0,0,0,1,.09C33.24,26.87,33,25.63,31.76,25.36Zm-3.85,4.37a4.33,4.33,0,0,1-1.73.22,4.16,4.16,0,0,1,2.43-1.78,6.05,6.05,0,0,1,.63,0A2.77,2.77,0,0,1,27.91,29.73Z" fill="#fff"/>
      <path d="M33.69,16.17a3.79,3.79,0,0,0,0-2.61,3.68,3.68,0,0,0-2-2,8.58,8.58,0,0,1,.52,1.81C32.31,14.29,32.24,15.46,33.69,16.17Z" fill="#fff"/>
    </g>
  </g>
</svg>
