<svg id="WHITE_TYPE" xmlns="http://www.w3.org/2000/svg" width="38" height="38" viewBox="0 0 38 38">
  <g id="class_20_copy" data-name="class_20 copy">
    <g>
      <path d="M6.28,20.69Z" fill="#fff"/>
      <path d="M21.11,12.06c.07-.23.15-.45.24-.67s.13-.31.19-.46a6.62,6.62,0,0,1,.3-.66c.1-.23.22-.46.34-.68h0s0,0,0,0a2.3,2.3,0,0,0,1.14,2.6c-.5,0-1,.64-.57.89.1.08.74.76.85.81a2,2,0,0,0,.43.27,3.93,3.93,0,0,0,.43.2c.21.09.43.16.65.23l.42.13,0,0h0l0,0s-7.35,5-8.27,12.14c0,.14-.43-.42-.48-.55s0,0,0,0h0c0,.1-.06.21-.08.31l-.18.68c0,.24-.08.49-.11.74-.08.52-.14,1-.17,1.56s0,.79,0,1.18a13.45,13.45,0,0,0,.21,1.79c.05.23.11.46.16.7a6.32,6.32,0,0,0,.18.62v0h0a.71.71,0,0,1-.1-.14,2.53,2.53,0,0,1-.32-.61c-.06-.15-.12-.31-.17-.47s-.1-.33-.15-.49-.12-.44-.17-.66l-.06-.42c-.09-.51-.17-1-.23-1.54a9.81,9.81,0,0,1-.12-1.33V27.18c0-.42,0-.84.08-1.26,0-.23,0-.46.06-.68s.05-.39.08-.58c.07-.42.14-.83.23-1.25s.21-.86.33-1.29.19-.67.3-1c0-.13.09-.26.14-.38h0v0c0,.1,0,.2,0,.3a.67.67,0,0,0,.15.46l0,0a.36.36,0,0,0,.33,0,1.94,1.94,0,0,0,.21-.2,3.87,3.87,0,0,0,.38-.58c.11-.25.23-.49.34-.74l.21-.57a3.53,3.53,0,0,0,.21-1.29,1.17,1.17,0,0,0-.08-.37.87.87,0,0,0-.18-.36l0,0-.13,0a.49.49,0,0,0-.21,0,1.3,1.3,0,0,0-.41.2,1.42,1.42,0,0,0-.2.22h0v-.09c0-.19.07-.37.11-.56a14.45,14.45,0,0,1,.57-1.8c.15-.38.3-.76.47-1.14l.48-1q.14-.27.24-.54a1,1,0,0,0,0-.23s0-.07-.07-.06a.3.3,0,0,0-.11,0,2.11,2.11,0,0,0-.36.31c-.1.11-.19.22-.3.33h0v0a3.51,3.51,0,0,1,.33-.6,6.61,6.61,0,0,1,.35-.63,1.92,1.92,0,0,1,.18-.31l.24-.41.26-.4q.42-.66.9-1.29t.81-1.05A8,8,0,0,1,22,7.65c.19-.2.39-.4.58-.61A6.14,6.14,0,0,1,23,6.61a2.16,2.16,0,0,1,.27-.25l.4-.34.62-.5c.15-.13.31-.25.47-.37l.53-.38a5.3,5.3,0,0,1,.89-.52s0,0,0,0h0l-.67.49c-.37.3-.73.62-1.08,1l-.36.36a12.5,12.5,0,0,0-1.54,1.85l-.56.9c-.09.21-.19.43-.29.64s-.23.43-.33.65a1.69,1.69,0,0,1-.13.31,1.8,1.8,0,0,1-.16.38c0,.09-.06.18-.1.27a.36.36,0,0,1,0,.11c-.14.37-.26.73-.38,1.1a3,3,0,0,0-.12.4c-.08.29-.15.58-.22.87q-.13.69-.21,1.38a2.58,2.58,0,0,0,0,.39,4.93,4.93,0,0,0,0,.86,2.26,2.26,0,0,0,0,.37,2.11,2.11,0,0,0,.05.35.12.12,0,0,0,.07.11.14.14,0,0,0,.13,0,2.39,2.39,0,0,0,.35-.28,5,5,0,0,1,.4-.4l.29-.26a10.85,10.85,0,0,1,1-.8c.19-.12.38-.24.56-.38a.28.28,0,0,0,.1-.27.81.81,0,0,0-.29-.29c-.22-.22-.44-.45-.64-.69a.08.08,0,0,0-.09,0,.46.46,0,0,0-.15.26,2.57,2.57,0,0,0,0,.48v0h0c-.1-.22-.2-.45-.28-.68A6.91,6.91,0,0,1,21.11,12.06Z" fill="#fff"/>
      <path d="M27.47,12.54h0a5.62,5.62,0,0,0,1.19-1.88h0c0-.22.08-.22.1-.44h0c0-.17,0-.34.07-.51h0a.61.61,0,0,1,.11-.29h0a1.31,1.31,0,0,1,.35-.27h0l.08,0h0s0,0,0,0h0l-.2,0h0A.27.27,0,0,1,29,8.93h0a.41.41,0,0,1,0-.22h0s-.34-.13-.33-.75l.05-.23a.29.29,0,0,1,0-.3h0a1.51,1.51,0,0,1,.29-.27,3.08,3.08,0,0,1,1-.29h0a5,5,0,0,1,.67,0h0l.45,0h.06l-.05,0h0l-.26-.09h0A3.28,3.28,0,0,0,30,6.58h0a2.69,2.69,0,0,0-.4,0h-.24a4.44,4.44,0,0,0-.63,0h0a1.67,1.67,0,0,0-.31,0h0a3.25,3.25,0,0,0-.61.17h0a4.39,4.39,0,0,0-.94.48h0l-.27.22h0a.26.26,0,0,0-.1.13h0a.84.84,0,0,1-.19.43h0a2.35,2.35,0,0,1-.36.47h0s0,0,0,0h0l.17-.05h0s0,0,0,0h0a.06.06,0,0,1,0,0h0a2.42,2.42,0,0,1-.1.36h0a3.54,3.54,0,0,1-.25.52h0l0,.06h0a2.09,2.09,0,0,1,.2-.22h0A3.88,3.88,0,0,1,26.32,9h0l.18-.11h0a1,1,0,0,1,.61-.13h0a.52.52,0,0,1,.46.26h0a.73.73,0,0,1,.06.41h0a1.81,1.81,0,0,1,0,.23h0a3.12,3.12,0,0,1-.21.72h0a5.2,5.2,0,0,1-.32.62h0a6.18,6.18,0,0,1-1,1.15h0a3.22,3.22,0,0,1-.6.42h0a2.08,2.08,0,0,1-.52.25h0a2,2,0,0,1-.51.17h0a5.18,5.18,0,0,1-.66.14h0l0,0h0l0,0h0l.26.23h0a4.19,4.19,0,0,0,.47.29h0l.17.07h0l.22.1h0a1.88,1.88,0,0,0,.42.14h0a2.7,2.7,0,0,0,.58.09h0a.1.1,0,0,0,.09,0h0l.07-.06h0a1.8,1.8,0,0,1,.19-.2h0c.18-.18.36-.36.53-.56h0S27.07,13,27.47,12.54Z" fill="#fff"/>
      <path d="M13.54,7.53a7,7,0,0,1,3.18-1.74,13.15,13.15,0,0,0-4.53.46A8.13,8.13,0,0,0,8.55,10.1C10.23,8.73,11.72,7.61,13.54,7.53Z" fill="#fff"/>
      <path d="M8.13,14.8a14.8,14.8,0,0,1,5.29-6.18A11.3,11.3,0,0,0,8.1,12.1a14.91,14.91,0,0,0-2.31,4.1,4,4,0,0,1,0-1,10.78,10.78,0,0,1,1.3-5A11.11,11.11,0,0,1,8.54,8.12,10.29,10.29,0,0,0,6,10.88a14,14,0,0,0-1.2,2.8A13.58,13.58,0,0,0,4.41,15a14.55,14.55,0,0,0,8.28,16.23c.33.14.67.27,1,.4l.36.13h0C13.71,31.51,3.78,24.76,8.13,14.8Z" fill="#fff"/>
      <path d="M22.64,4.33c-3.27-.35-5.94-.75-8.9.84a12,12,0,0,1,4.09,0A13.62,13.62,0,0,1,22.64,4.33Z" fill="#fff"/>
      <path d="M18,32.69a10.23,10.23,0,0,0,7-.85,9.1,9.1,0,0,0,2.65-2,11,11,0,0,1-4.48.8C21.58,32.17,19.86,32.41,18,32.69Z" fill="#fff"/>
      <path d="M28,27.5c.73-.31-.81,1.32-3.45,2.24-.68.23,2.67,0,4.79-1.53s3.81-2.87,4.61-8.79a17.89,17.89,0,0,1-13.5,8.66S24.69,28.88,28,27.5Z" fill="#fff"/>
      <path d="M32.41,11.21s1.26,5.93-2,10.92a8,8,0,0,0,3.42-4.52A19,19,0,0,0,32.41,11.21Z" fill="#fff"/>
    </g>
  </g>
</svg>
