<svg id="WHITE_TYPE" xmlns="http://www.w3.org/2000/svg" width="38" height="38" viewBox="0 0 38 38">
  <g id="class_23_copy" data-name="class_23 copy">
    <g>
      <path d="M9.33,14.12l-.56.56L6.22,12.12l.56-.57Z" fill="#fff"/>
      <path d="M14.72,8.68l-.56.57L11.62,6.68l.56-.56Z" fill="#fff"/>
      <path d="M11,11.56l-.56.56L9.16,10.84l.56-.56Z" fill="#fff"/>
      <path d="M12.15,10.39l-.56.57L10.32,9.67l.56-.56Z" fill="#fff"/>
      <path d="M8.58,14.49l.61.61a10.4,10.4,0,0,1,2.05-3.3l-.56-.56A11.45,11.45,0,0,0,8.58,14.49Z" fill="#fff"/>
      <path d="M14.54,8.5a11.18,11.18,0,0,0-3.26,2.13l.56.57a10.46,10.46,0,0,1,3.31-2.09Z" fill="#fff"/>
      <path d="M12,8.68l-.41-.41a13.13,13.13,0,0,0-1.49,1.21l.4.4A14.08,14.08,0,0,1,12,8.68Z" fill="#fff"/>
      <path d="M8.34,11.56l.41.41a12.55,12.55,0,0,1,1.18-1.48l-.4-.4A12.75,12.75,0,0,0,8.34,11.56Z" fill="#fff"/>
      <path d="M15.2,4.51A14.79,14.79,0,0,0,8.83,8.05l.56.57a14.05,14.05,0,0,1,6.47-3.45Z" fill="#fff"/>
      <path d="M4.69,14.88l.65.65A14.15,14.15,0,0,1,8.67,9.34l-.56-.56A15,15,0,0,0,4.69,14.88Z" fill="#fff"/>
      <path d="M14.15,28.74l.56.56-2.55,2.57-.56-.57Z" fill="#fff"/>
      <path d="M8.75,23.31l.56.56L6.77,26.43l-.56-.56Z" fill="#fff"/>
      <path d="M11.61,27.06l.56.56L10.9,28.9l-.57-.56Z" fill="#fff"/>
      <path d="M10.45,25.89l.56.57L9.74,27.74l-.56-.57Z" fill="#fff"/>
      <path d="M14.52,29.49l.61-.61a10.38,10.38,0,0,1-3.28-2.07l-.56.57A11.18,11.18,0,0,0,14.52,29.49Z" fill="#fff"/>
      <path d="M8.57,23.49a11.31,11.31,0,0,0,2.12,3.28l.56-.56a10.78,10.78,0,0,1-2.07-3.33Z" fill="#fff"/>
      <path d="M8.75,26l-.41.41a13,13,0,0,0,1.21,1.5l.39-.4A12.14,12.14,0,0,1,8.75,26Z" fill="#fff"/>
      <path d="M11.61,29.73l.41-.41a13.77,13.77,0,0,1-1.48-1.19l-.39.4A12.74,12.74,0,0,0,11.61,29.73Z" fill="#fff"/>
      <path d="M4.61,22.82a15,15,0,0,0,3.52,6.42l.56-.57a14,14,0,0,1-3.42-6.51Z" fill="#fff"/>
      <path d="M14.91,33.41l.65-.65A14.08,14.08,0,0,1,9.41,29.4L8.85,30A14.72,14.72,0,0,0,14.91,33.41Z" fill="#fff"/>
      <path d="M28.67,23.88l.56-.56,2.55,2.56-.56.57Z" fill="#fff"/>
      <path d="M23.28,29.31l.56-.56,2.55,2.57-.57.56Z" fill="#fff"/>
      <path d="M27,26.44l.56-.56,1.27,1.28-.56.56Z" fill="#fff"/>
      <path d="M25.85,27.61l.56-.56,1.27,1.28-.56.56Z" fill="#fff"/>
      <path d="M29.42,23.51l-.6-.61a10.62,10.62,0,0,1-2.06,3.3l.56.56A11.24,11.24,0,0,0,29.42,23.51Z" fill="#fff"/>
      <path d="M23.46,29.5a11.08,11.08,0,0,0,3.26-2.14l-.56-.56a10.46,10.46,0,0,1-3.31,2.09Z" fill="#fff"/>
      <path d="M26,29.32l.4.41a13.13,13.13,0,0,0,1.49-1.21l-.4-.4A13,13,0,0,1,26,29.32Z" fill="#fff"/>
      <path d="M29.66,26.44,29.25,26a12.55,12.55,0,0,1-1.18,1.48l.4.4A12.75,12.75,0,0,0,29.66,26.44Z" fill="#fff"/>
      <path d="M22.8,33.49A14.79,14.79,0,0,0,29.17,30l-.56-.57a14.05,14.05,0,0,1-6.47,3.45Z" fill="#fff"/>
      <path d="M33.31,23.12l-.65-.65a14.07,14.07,0,0,1-3.34,6.19l.57.56A15,15,0,0,0,33.31,23.12Z" fill="#fff"/>
      <path d="M23.85,9.26l-.56-.56,2.55-2.57.56.57Z" fill="#fff"/>
      <path d="M29.25,14.69l-.56-.56,2.54-2.56.57.56Z" fill="#fff"/>
      <path d="M26.39,10.94l-.56-.56L27.11,9.1l.56.56Z" fill="#fff"/>
      <path d="M27.55,12.11,27,11.54l1.27-1.28.56.57Z" fill="#fff"/>
      <path d="M23.48,8.51l-.61.61a10.27,10.27,0,0,1,3.28,2.07l.56-.57A11.18,11.18,0,0,0,23.48,8.51Z" fill="#fff"/>
      <path d="M29.43,14.51a11.31,11.31,0,0,0-2.12-3.28l-.56.56a10.78,10.78,0,0,1,2.07,3.33Z" fill="#fff"/>
      <path d="M29.25,12l.41-.41a14.08,14.08,0,0,0-1.2-1.5l-.4.4A12.14,12.14,0,0,1,29.25,12Z" fill="#fff"/>
      <path d="M26.39,8.27,26,8.68a13.77,13.77,0,0,1,1.48,1.19l.4-.4A13.77,13.77,0,0,0,26.39,8.27Z" fill="#fff"/>
      <path d="M33.39,15.18a15,15,0,0,0-3.52-6.42l-.56.57a14,14,0,0,1,3.42,6.51Z" fill="#fff"/>
      <path d="M23.09,4.59l-.65.65A14.08,14.08,0,0,1,28.59,8.6L29.15,8A14.72,14.72,0,0,0,23.09,4.59Z" fill="#fff"/>
      <path d="M13.44,12.87a1.36,1.36,0,0,0-1.35,1.3v0a1,1,0,0,0,1,.92.62.62,0,0,0,.64-.71c0-.18-.07-.3-.19-.3s-.25.22-.25.22c0,.25-.2.31-.37.31a.58.58,0,0,1,0-.91A.86.86,0,0,1,14,13.67a1.39,1.39,0,0,1,0,1.77,1.5,1.5,0,0,1-1,.36,1.12,1.12,0,0,1-.87-.36v5.63a1.36,1.36,0,1,0,2.71,0V14.24A1.36,1.36,0,0,0,13.44,12.87Z" fill="#fff"/>
      <path d="M21,12.38a1.37,1.37,0,0,0-.61.15,1.24,1.24,0,0,0-.32.23,1.61,1.61,0,0,0-.4.9v0a1,1,0,0,0,1,.93.62.62,0,0,0,.63-.71c0-.19-.07-.3-.18-.3a.27.27,0,0,0-.25.21c0,.26-.2.31-.37.31a.58.58,0,0,1,0-.91.84.84,0,0,1,1.14-.07,1.4,1.4,0,0,1,0,1.77,1.44,1.44,0,0,1-1,.37,1.1,1.1,0,0,1-.86-.37v6.42a1.34,1.34,0,1,0,2.68,0V13.73A1.35,1.35,0,0,0,21,12.38Z" fill="#fff"/>
      <path d="M24.84,12.87a1.33,1.33,0,0,0-1.33,1.31v0a1,1,0,0,0,1,.93.61.61,0,0,0,.62-.71c0-.18-.07-.3-.18-.3s-.25.22-.25.22c0,.25-.19.31-.36.31a.58.58,0,0,1,0-.91.84.84,0,0,1,1.14-.07,1.4,1.4,0,0,1,0,1.77,1.47,1.47,0,0,1-1,.36,1.09,1.09,0,0,1-.86-.36v6.18a1.34,1.34,0,1,0,2.67,0v-7.4A1.34,1.34,0,0,0,24.84,12.87Z" fill="#fff"/>
      <path d="M23.26,23.8H17.35a1.15,1.15,0,0,1,.36.86,1.46,1.46,0,0,1-.37,1,1.37,1.37,0,0,1-1.75,0,.85.85,0,0,1,.07-1.15.57.57,0,0,1,.9,0c0,.17,0,.37-.31.37a.27.27,0,0,0-.21.25c0,.11.11.18.3.18a.61.61,0,0,0,.71-.63,1,1,0,0,0-.91-1H16a1.35,1.35,0,0,0,.09,2.69h7.13a1.35,1.35,0,0,0,0-2.69Z" fill="#fff"/>
      <path d="M17.25,12.38a1.25,1.25,0,0,0-.59.14,1.17,1.17,0,0,0-.42.34l0,0v0a1.62,1.62,0,0,0-.27.74h0a1,1,0,0,0,.95,1,.61.61,0,0,0,.62-.71c0-.19-.07-.3-.18-.3s-.25.21-.25.21c0,.26-.19.32-.35.32a.58.58,0,0,1,0-.91.8.8,0,0,1,1.12-.07,1.4,1.4,0,0,1,0,1.76,1.38,1.38,0,0,1-1,.37,1.06,1.06,0,0,1-.84-.37v.73h0v5.45a1.32,1.32,0,1,0,2.64,0v-7.4A1.32,1.32,0,0,0,17.25,12.38Z" fill="#fff"/>
      <path d="M7.15,20.31V17.69h2v-.57H6.59v1.6H5.12v.57H6.59v1.59H9.16v-.57Z" fill="#fff"/>
      <path d="M30.85,20.31V17.69h-2v-.57h2.57v1.6h1.47v.57H31.41v1.59H28.84v-.57Z" fill="#fff"/>
    </g>
  </g>
</svg>
