<svg id="WHITE_TYPE" xmlns="http://www.w3.org/2000/svg" width="38" height="38" viewBox="0 0 38 38">
  <g id="class_26_copy" data-name="class_26 copy">
    <g>
      <path d="M21,19.09a2,2,0,0,0-1.93-2,1.12,1.12,0,0,0-.27,0,5.71,5.71,0,0,1-.89-.34c-.75-.55.3-1.51.3-1.51-1.81,1.46-.2,2.15-.2,2.15h0a2,2,0,0,0-.87,1.69,2,2,0,0,0,1.93,2h0a5.47,5.47,0,0,1,.76.3c.76.55-.3,1.51-.3,1.51,1.37-1.11.78-1.77.41-2A2,2,0,0,0,21,19.09Zm-1.87,1.19a1.2,1.2,0,1,1,1.14-1.19A1.17,1.17,0,0,1,19.11,20.28Z" fill="#fff"/>
      <path d="M18.85,2.5s.07,4.69-.89,7.19a8.75,8.75,0,0,1-1.27,2.24s.36,0,.43.19a4.52,4.52,0,0,1,1-.94c.18,0,.36.5.1.85a1.75,1.75,0,0,1-1.09.76A3.05,3.05,0,0,0,18.54,14a3.1,3.1,0,0,0,1.55.45,1.19,1.19,0,0,1-.65.63s.35.68.84,0a7.59,7.59,0,0,0,1.23-2.45s-.6,1.42-1.7,1.52A2.38,2.38,0,0,1,18.14,13c.12-.49.33-1.47,1.16-1.54a2,2,0,0,1,1.17.83A16.25,16.25,0,0,1,20,10.42a28.69,28.69,0,0,1-.75-4.19C19.15,4.66,19,4.05,18.85,2.5Z" fill="#fff"/>
      <path d="M5.1,10C5,10,10,12.34,13.26,12.62a7,7,0,0,0,1.68,1.93s-1.58.26-1.5,1.47a1.9,1.9,0,0,0,.2.9,3,3,0,0,1,1.06-1.23s-.42,1,.77,1.66c.25,0,.78.15,1-.71,0,0-.14,1.07-1,1.17a1.33,1.33,0,0,1-.65-.18c-.34-.45-.36-.33-.49-.83a1.31,1.31,0,0,0-.46,1c.1.4.08.61.66.88,0,0-.63.13-1.22-.73a2.61,2.61,0,0,1-.22-2.39c.45-.69.65-.89,1-1.07a.74.74,0,0,0-.79,0c-.66.47-.94.64-1.42,1-.84-.3-.62-.07-1.13-.6a16.79,16.79,0,0,0-2.88-3C6,10.62,6.56,10.9,5.1,10Z" fill="#fff"/>
      <path d="M32.91,10c.07,0-4.95,2.35-8.17,2.63a7,7,0,0,1-1.68,1.93s1.58.26,1.5,1.47a1.9,1.9,0,0,1-.2.9,3,3,0,0,0-1.06-1.23s.42,1-.77,1.66c-.25,0-.77.15-1-.71,0,0,.14,1.07,1,1.17a1.33,1.33,0,0,0,.65-.18c.34-.45.36-.33.49-.83a1.31,1.31,0,0,1,.46,1c-.1.4-.08.61-.66.88,0,0,.63.13,1.22-.73a2.58,2.58,0,0,0,.22-2.39c-.45-.69-.64-.89-1-1.07a.75.75,0,0,1,.79,0c.66.47.94.64,1.42,1,.84-.3.63-.07,1.13-.6a17.15,17.15,0,0,1,2.88-3C32,10.62,31.44,10.9,32.91,10Z" fill="#fff"/>
      <path d="M19.15,35.5s-.07-4.69.89-7.19a8.75,8.75,0,0,1,1.27-2.24s-.36,0-.43-.2a4.74,4.74,0,0,1-1,.95c-.18,0-.36-.5-.1-.85a1.78,1.78,0,0,1,1.09-.76A3.05,3.05,0,0,0,19.46,24a3.1,3.1,0,0,0-1.55-.45,1.19,1.19,0,0,1,.65-.63s-.35-.68-.84,0a7.59,7.59,0,0,0-1.23,2.45s.6-1.42,1.7-1.52a2.4,2.4,0,0,1,1.67,1.18c-.12.49-.33,1.47-1.16,1.54a2,2,0,0,1-1.17-.83A16.25,16.25,0,0,1,18,27.58a28.69,28.69,0,0,1,.75,4.19C18.85,33.34,19,34,19.15,35.5Z" fill="#fff"/>
      <path d="M32.91,28c.07,0-4.95-2.35-8.17-2.64a7.11,7.11,0,0,0-1.68-1.92s1.58-.26,1.5-1.47a1.9,1.9,0,0,0-.2-.9,3,3,0,0,1-1.06,1.23s.42-.95-.77-1.66c-.25,0-.77-.15-1,.71,0,0,.14-1.07,1-1.17a1.33,1.33,0,0,1,.65.18c.34.45.36.33.49.83a1.31,1.31,0,0,0,.46-1c-.1-.4-.08-.61-.66-.88,0,0,.63-.13,1.22.73a2.58,2.58,0,0,1,.22,2.39c-.45.69-.64.89-1,1.07a.75.75,0,0,0,.79,0c.66-.47.94-.63,1.42-1,.84.3.63.07,1.13.6a17.15,17.15,0,0,0,2.88,3C32,27.38,31.44,27.1,32.91,28Z" fill="#fff"/>
      <path d="M5.1,28c-.08,0,4.94-2.35,8.16-2.64a7.11,7.11,0,0,1,1.68-1.92s-1.58-.26-1.5-1.47a1.9,1.9,0,0,1,.2-.9,3,3,0,0,0,1.06,1.23s-.42-.95.77-1.66c.25,0,.78-.15,1,.71,0,0-.14-1.07-1-1.17a1.33,1.33,0,0,0-.65.18c-.34.45-.36.33-.49.83a1.31,1.31,0,0,1-.46-1c.1-.4.08-.61.66-.88,0,0-.63-.13-1.22.73a2.61,2.61,0,0,0-.22,2.39c.45.69.65.89,1,1.07a.74.74,0,0,1-.79,0c-.66-.47-.94-.63-1.42-1-.84.3-.62.07-1.13.6a16.79,16.79,0,0,1-2.88,3C6,27.38,6.56,27.1,5.1,28Z" fill="#fff"/>
    </g>
  </g>
</svg>
