<svg id="WHITE_TYPE" xmlns="http://www.w3.org/2000/svg" width="38" height="38" viewBox="0 0 38 38">
  <g id="class_9_copy" data-name="class_9 copy">
    <path d="M29.6,24.3l3.2,4.6-4.6-2.4-7.5,5.6V30.5l6.1-4.7-.2-.1-4-5.6L28,22.9V9.5l-5.4,2.8,3.7-5.2-5-1.3-2.5-.6-2.5.6L11.4,7.1l3.7,5.2L9.6,9.5V22.9l5.5-2.8-4,5.6-.2.1L17,30.5v1.6L9.5,26.5,4.9,28.9l3.2-4.6V8.1L4.9,3.5,9.6,5.9l7.9-2L19,.9l1.5,3,7.9,2,4.7-2.4L29.9,8.1l-.3,16.2ZM18.9,5.6l.7,1.3-.7,1.3-.7-1.3ZM18,26.4l-1.2-.6,1.2-.6V24l-1.2-.6,1.1-.5-.1-2.3-.7-2.2L15.3,25l-.4-4.9L10,19.7l6.6-1.8L11,16.3l5.6-1.6L10,12.9l4.9-.4.4-4.9,1.8,6.6,1.7-5.5,1.7,5.5,1.8-6.6.4,4.9,4.9.4L21,14.7l5.6,1.6L21,17.9l6.6,1.8-4.9.4L22.3,25l-1.8-6.6-.7,2.2-.1,2.3,1.1.5-1.2.6v1.2l1.2.6-1.2.6-.1,3.1h.7l-1.5,1.8-1.5-1.8h.7Zm2-9.1,3.9-1.2L20,14.9,18.8,11l-1.2,3.9-3.9,1.2,3.9,1.2,1.2,3.9ZM18.9,15a1.2,1.2,0,1,1-1.2,1.2A1.16,1.16,0,0,1,18.9,15Zm1.3,15.8v1.5l-.3.4v.5l-.7.5.3.6.4.6-1,2.2-1-2.2.4-.6.3-.6-.7-.6v-.4l-.3-.4V30.8l1.3,1.4Z" fill="#fff" fill-rule="evenodd"/>
  </g>
</svg>
