<svg id="WHITE_TYPE" xmlns="http://www.w3.org/2000/svg" width="38" height="38" viewBox="0 0 38 38">
  <g id="class_4_copy" data-name="class_4 copy">
    <g>
      <path d="M32.27,25.69,32,25.5l-.57-.08c-2.73-.53-3.56-2.54-5.31-3.66l-.2-.12a4.44,4.44,0,0,1,.22-.78,5.27,5.27,0,0,1,.67-1.23A10.87,10.87,0,0,0,25.2,21.3c-.19-.06-.4-.13-.61-.18h0a3,3,0,0,0-.76-2.26l-.85-.33c-.08-1.92-.79-4.12-2.42-5.15A5,5,0,0,1,22,18.14l-1.81-.71a2.14,2.14,0,0,1-.59.44V8.42l1.61,2.23L20.2,8l1.13,1L19,2.13h0L16.67,9,17.8,8l-1,2.65,1.61-2.23v9.45a2.14,2.14,0,0,1-.59-.44l-1.81.71a5,5,0,0,1,1.43-4.76c-1.63,1-2.34,3.23-2.42,5.15l-.85.33a3,3,0,0,0-.76,2.26h0c-.22.05-.42.12-.62.18a11.79,11.79,0,0,0-1.64-1.67,5.48,5.48,0,0,1,.66,1.23,4.44,4.44,0,0,1,.22.78l-.2.12c-1.74,1.12-2.57,3.13-5.3,3.66A5.21,5.21,0,0,1,6,25.5l-.23.19C4,27.38,3.6,31.07,1.49,32.3c1.19-.37,2.13-1.85,2.86-3.19.47-.81.78-1.46.78-1.46a2.93,2.93,0,0,0,.17.65,7.25,7.25,0,0,0-.74,2.41c.06-.17.12-.33.19-.49a5.65,5.65,0,0,1,2.1-2.63,6.8,6.8,0,0,1,.91-.51c.94-.42,2-.65,2.92-1l.1.06h0a2.71,2.71,0,0,0,.46.33,2.15,2.15,0,0,0,.37.19L10.2,27l-1.41.37a7.39,7.39,0,0,0-1.34.71,4,4,0,0,0-1,1.18h0A5.28,5.28,0,0,1,7,28.78,5.36,5.36,0,0,1,9,27.9c.32-.11,1.15-.21,2.09-.4a8.92,8.92,0,0,0,2.78-1,3.39,3.39,0,0,1-2.11-1.08,6.94,6.94,0,0,1,2.92-1.14c1-.24,1.25-1.73,2.2-2.14a7.32,7.32,0,0,1,1.53-.31l.31,11.58h.48l.31-11.58a7.32,7.32,0,0,1,1.53.31c1,.41,1.19,1.9,2.19,2.14a7,7,0,0,1,2.93,1.14,3.41,3.41,0,0,1-2.12,1.08,9.07,9.07,0,0,0,2.79,1c.94.19,1.77.29,2.09.4a5.36,5.36,0,0,1,2.08.88,5.28,5.28,0,0,1,.53.47h0a4,4,0,0,0-1-1.18,7.75,7.75,0,0,0-1.34-.71L27.79,27l-1.41-.38a2,2,0,0,0,.36-.19,2.29,2.29,0,0,0,.55-.4c1,.4,2,.64,2.95,1.06a6.8,6.8,0,0,1,.91.51,5.71,5.71,0,0,1,2.1,2.63c.07.16.13.32.19.49a7.25,7.25,0,0,0-.74-2.41,2.93,2.93,0,0,0,.17-.65s.31.65.78,1.46c.73,1.34,1.67,2.82,2.86,3.19C34.41,31.07,34,27.38,32.27,25.69ZM14.64,19.34l.37-.13c0,.42,0,.76,0,1a7.85,7.85,0,0,0-.78.58A2.2,2.2,0,0,1,14.64,19.34ZM7,26.66s-1,.48-1.22,1.12v-.84s.27-.92,1-.9a5.69,5.69,0,0,0,2.63-1.2,2.73,2.73,0,0,0,.66.81A27.43,27.43,0,0,1,7,26.66Zm4.26-1.73a3.71,3.71,0,0,1-1-1l.07-.08A4.94,4.94,0,0,1,13.51,22a1.36,1.36,0,0,0,.87,1.43A8.82,8.82,0,0,0,11.29,24.93Zm6.85-3.81a4.45,4.45,0,0,0-1.08.19,2.18,2.18,0,0,0-1.84,1.53c-.51,0-.75-.52-.87-.95.71-.65,2.25-1.76,3.8-1.08Zm0-2.14a7.82,7.82,0,0,0-1.56.39,1.69,1.69,0,0,1-.37-.59l1.4-.5.53.56V19Zm5.26.36a2.21,2.21,0,0,1,.42,1.39,6.79,6.79,0,0,0-.85-.62c0-.21,0-.53,0-.92Zm-3.53-.5.53-.56,1.34.47a1.86,1.86,0,0,1-.35.6A9,9,0,0,0,19.91,19Zm3,4A2.18,2.18,0,0,0,21,21.31a4.45,4.45,0,0,0-1.08-.19v-.3c1.55-.7,3.09.4,3.8,1.05C23.61,22.31,23.37,22.8,22.85,22.84Zm3.83,2.06a8.86,8.86,0,0,0-3.05-1.46A1.36,1.36,0,0,0,24.49,22a4.91,4.91,0,0,1,3.12,1.87l0,0A3.39,3.39,0,0,1,26.68,24.9Zm5.52,2.88C32,27.14,31,26.66,31,26.66a27.82,27.82,0,0,1-3.07-1,2.29,2.29,0,0,0,.65-.83A5.73,5.73,0,0,0,31.24,26c.68,0,.95.9.95.9v.84Z" fill="#fff"/>
      <path d="M19.7,29.52l-.05,1.34s1.5.47,2.32,3.75C22,34.61,21.76,30.82,19.7,29.52Z" fill="#fff"/>
      <path d="M18.35,30.86l-.05-1.34C16.25,30.82,16,34.61,16,34.61,16.85,31.33,18.35,30.86,18.35,30.86Z" fill="#fff"/>
      <path d="M19.65,31.21l-.06,1.23s1.38.44,2.13,3.44C21.72,35.88,21.53,32.41,19.65,31.21Z" fill="#fff"/>
      <path d="M16.28,35.88c.75-3,2.13-3.44,2.13-3.44l-.05-1.23C16.48,32.41,16.28,35.88,16.28,35.88Z" fill="#fff"/>
    </g>
  </g>
</svg>
