<svg id="WHITE_TYPE" xmlns="http://www.w3.org/2000/svg" width="38" height="38" viewBox="0 0 38 38">
  <g id="class_2_copy" data-name="class_2 copy">
    <path d="M19,3.05,16.78,5.26l-.88.89L3.05,19,15.9,31.85l.88.89L19,35l2.21-2.21.89-.89L35,19Zm0,1.77,1.33,1.33L19,7.48,17.67,6.15ZM12.8,19.89l6.2,6.2.89-.89,5.31-5.31,1.33,1.33L19,28.75l-7.53-7.53Zm-2.22.44L9.25,19l1.33-1.33L11.91,19ZM13.68,19,19,13.68,24.31,19,19,24.32Zm12.41,0,1.33-1.33L28.74,19l-1.32,1.33Zm-.89-.89-5.75-5.75L19,11.91h0l-.88.89L12.8,18.12l-1.33-1.34L19,9.25l7.53,7.53ZM4.82,19l12-12,1.33,1.33L10.58,15.9l-.89.88L8.37,18.11,7.48,19,10,21.51l.59.59h0l7.53,7.53L16.78,31ZM19,33.18l-1.33-1.33L19,30.52l1.33,1.33ZM21.21,31l-1.33-1.33,7.54-7.53.88-.89,1.33-1.32.89-.89-.89-.89-1.77-1.77-.44-.44L19.88,8.36,21.21,7l12,12ZM19,15.1,15.1,19,19,22.9,22.9,19ZM5,5V12.5L12.37,5ZM6.21,6.22H9.34L6.21,9.47ZM33,5H25.51L33,12.5Zm-1.25,4.5L28.53,6.22h3.25ZM5,33h7.53L5,25.51Zm1.25-4.51,3.26,3.26H6.21ZM33,33V25.51L25.51,33Zm-1.25-1.25H28.53l3.25-3.26Z" fill="#fff"/>
  </g>
</svg>
