<svg id="WHITE_TYPE" xmlns="http://www.w3.org/2000/svg" width="38" height="38" viewBox="0 0 38 38">
  <g id="class_6_copy" data-name="class_6 copy">
    <g>
      <path d="M5.16,2c.29.2.59.37.87.58A3.81,3.81,0,0,1,7,3.75a.82.82,0,0,1,.1.37q0,7,0,14a4.8,4.8,0,0,0,.27,1.76,8.33,8.33,0,0,0,.44.8c-.26.44-.54,1-.87,1.45s-.81,1.14-1.23,1.71a.6.6,0,0,1-.83.06s0,0-.05,0V2Z" fill="#fff"/>
      <path d="M33.15,5.07a.8.8,0,0,1-.32.66,2.14,2.14,0,0,1-1.28.47c-.56,0-1.12,0-1.68,0a4.46,4.46,0,0,0-3.37,1.7,4.3,4.3,0,0,0-.82,2.29,14.38,14.38,0,0,0,.1,3.53c0,.23.12.45.17.67a.36.36,0,0,1,0,.25c-.16.28-.32.56-.5.83a.44.44,0,0,1-.4.18,6,6,0,0,0-2.54.53A3.29,3.29,0,0,0,20.57,19a.52.52,0,0,0,0,.21,1.89,1.89,0,1,1-3.61.15,1.63,1.63,0,0,0,0-.85,3.31,3.31,0,0,0-2-2.26,6.63,6.63,0,0,0-2.4-.56.28.28,0,0,1-.28-.19,8.63,8.63,0,0,1-.78-2.38,13.68,13.68,0,0,1-.27-3.26,5.8,5.8,0,0,1,1.57-3.79,8.38,8.38,0,0,1,.93-.85.53.53,0,0,1,.35-.12c.75,0,1.5,0,2.25,0A.65.65,0,0,0,16.64,5l2-1.27a.23.23,0,0,1,.29,0c.65.42,1.31.83,2,1.23a.75.75,0,0,0,.4.12H33.15ZM20.44,8.75h-3a8.49,8.49,0,0,1-.31,1,1.67,1.67,0,0,1-.71.73c.51.91,1,1.8,1.5,2.7a2,2,0,0,1,1.94,0l1.54-2.72A1.93,1.93,0,0,1,20.44,8.75ZM13.62,8.6a5.66,5.66,0,0,0,.76,5.77c.85,1.14,2.87,2.29,3.67,2.12a1.86,1.86,0,0,1-1-1.33.35.35,0,0,0-.2-.28,4.52,4.52,0,0,1-2.45-4.42.25.25,0,0,0-.09-.2,1.91,1.91,0,0,1-.62-1C13.65,9,13.64,8.81,13.62,8.6Zm10.61,0a.39.39,0,0,0,0,.09,1.91,1.91,0,0,1-.7,1.58s-.05.12-.06.18c0,.36,0,.73,0,1.09a4.49,4.49,0,0,1-2.52,3.39s-.12.08-.13.13a1.93,1.93,0,0,1-1,1.41s0,0,0,0A5.74,5.74,0,0,0,24.23,8.61Zm-.86-1.4a5.68,5.68,0,0,0-5.49-2c-1.27.22-3.19,1.37-3.4,2.06a1.92,1.92,0,0,1,1.8-.17.26.26,0,0,0,.2,0,4.48,4.48,0,0,1,4.67-.14.88.88,0,0,0,.76.12A1.77,1.77,0,0,1,23.37,7.21Zm-5.8,6.22-.09-.16c-.44-.76-.89-1.52-1.32-2.29-.12-.22-.23-.38-.52-.3a1.2,1.2,0,0,1-.46,0c-.1,0-.2-.05-.31-.07A4,4,0,0,0,17,14.44a3.38,3.38,0,0,1,.22-.52A3.51,3.51,0,0,1,17.57,13.43Zm3.24,1A4,4,0,0,0,23,10.63c-.31,0-.61,0-.91,0-.13,0-.19,0-.25.12l-1.49,2.57c0,.05-.05.1-.07.14l0,0Zm-4-7.12c.17.29.33.59.5.87a.17.17,0,0,0,.13.07H20.4a.22.22,0,0,0,.14-.06,2,2,0,0,1,.55-.84A4,4,0,0,0,16.84,7.34Zm3.27,6.87c-.21.82-.61,1.2-1.22,1.15a1.14,1.14,0,0,1-.84-.45,1.19,1.19,0,0,1-.2-1,1.33,1.33,0,0,0,0,1.72,1.36,1.36,0,0,0,2.27-1.46ZM16.66,8.07a1.35,1.35,0,0,0-1.74-.49,1.37,1.37,0,0,0-.65,1.77c.24.54.91,1,1.33.79a1.21,1.21,0,0,1-.53-1.67A1.15,1.15,0,0,1,16.66,8.07Zm4.56,0c.82-.22,1.3-.08,1.59.46a1.14,1.14,0,0,1,.08.92,1.33,1.33,0,0,1-.63.73,1.32,1.32,0,0,0,1.38-.93,1.37,1.37,0,0,0-.74-1.66A1.35,1.35,0,0,0,21.22,8.05ZM19.14,20.89a1.15,1.15,0,0,0,.8-1.28,1.13,1.13,0,1,0-1.48,1.25.79.79,0,0,1-.17-1.22.75.75,0,0,1,1.1,0A.81.81,0,0,1,19.14,20.89Z" fill="#fff"/>
      <path d="M21.16,21.53l.75.5-.4.44A6.74,6.74,0,0,0,20,25.76a8,8,0,0,0,.18,2.83,9.81,9.81,0,0,0,1.25,3.16.21.21,0,0,1,0,.19l-2.56,4-.06,0-.5-.53a6.24,6.24,0,0,1-1.52-3.42A13.16,13.16,0,0,1,17,28.14c.14-.92.3-1.84.41-2.76a3.69,3.69,0,0,0-.21-1.8,2,2,0,0,0-.56-.8c-.26-.24-.5-.5-.75-.76l.75-.5a2.64,2.64,0,0,0,2.26,1.26A2.6,2.6,0,0,0,21.16,21.53Z" fill="#fff"/>
      <path d="M31.3,7.07v5.81a1.78,1.78,0,0,1-.69,1.41,1,1,0,0,1-.67.24l-2.23,0a.94.94,0,0,1-.29-.06.71.71,0,0,1-.58-.6c-.06-.47-.16-.95-.18-1.43a9.71,9.71,0,0,1,.08-2.47,3.49,3.49,0,0,1,3.06-2.82q.45,0,.9-.06C30.89,7,31.09,7.06,31.3,7.07Z" fill="#fff"/>
      <path d="M11,15.66a4,4,0,0,0-2.78,1.68V4A.92.92,0,0,1,9,4.1,4.34,4.34,0,0,0,11.35,5c.21,0,.42,0,.66.06l-.18.24A8.47,8.47,0,0,0,10.22,8.5,9.91,9.91,0,0,0,10,11.71a10.86,10.86,0,0,0,.56,2.82C10.69,14.91,10.87,15.27,11,15.66Z" fill="#fff"/>
    </g>
  </g>
</svg>
