<?xml version="1.0" encoding="UTF-8"?>
<svg id="WHITE_TYPE" xmlns="http://www.w3.org/2000/svg" width="38" height="38" viewBox="0 0 38 38">
  <defs>
    <style>
      .cls-1 {
        fill: #fff;
        stroke-width: 0px;
      }
    </style>
  </defs>
  <g id="Shape_13_copy_6" data-name="Shape 13 copy 6">
    <path class="cls-1" d="m13.97,14.17v-1.77s-.51-.87-1.31.63v.51c.79,1.5,1.31.63,1.31.63Zm.89-.44h.43l.31.04s.4,1.52,2,2.45c.15.22.28.46.33.68.01.17.02.37.02.58,0,.6.24,11.91.24,11.91,0,0,.12,1.25.32,1.63.24.43.32.65.32.65,0,0,.09-.22.32-.65.21-.38.32-1.63.32-1.63,0,0,.24-11.3.24-11.91,0-.21,0-.41.02-.58.06-.22.18-.45.33-.68,1.6-.93,2-2.45,2-2.45l.31-.04h.43s.22.4.5.3v-1.33c-.28-.1-.5.22-.5.22h-.43l-2.66-.1c-.11-.43-.5-.74-.97-.74s-.87.32-.97.74l-2.52.09h-.43s-.22-.32-.5-.22v1.33c.3.09.52-.3.52-.3Zm4.5.13s.09-.07.14-.12c.32,0,.79-.01,1.46-.01-.07,1.12-1.11,1.46-1.11,1.46-.21,0-.49-.39-.49-.39v-.95Zm-1.3-.12c.08.08.18.14.28.2v.87s-.28.39-.49.39c0,0-1.04-.34-1.11-1.46.59,0,1.02,0,1.33.01Zm-10.11,6.09c1.46.78,3.08.39,3.08.39,0,0-.15-1.11-.91-1.81-.56-.51-2.04-1.14-2.04-1.14-2.95-1.07-3.69-3.22-3.69-3.22.24,3.37,1.73,4.81,3.57,5.79Zm3.4,5.32c.82-1.04.2-1.88.2-1.88-1.16,1.94-5.75.41-5.75.41.35,3.22,4.46,2.87,5.56,1.48Zm5.5-12.88c.34-.76,1.12-1.33,2.02-1.33s1.67.54,2.01,1.32h1.1c-.13-.45-.37-.87-.67-1.22.21-.47-.16-.89-.16-.89,0,0-.52-.27-.93.07-.2-.09-.41-.17-.64-.22-.02-.53-.83-.64-.83-.64,0,0-.83.11-.83.66h.14c-.24.06-.48.16-.7.28-.39-.3-.87-.05-.87-.05,0,0-.36.42-.14.87-.27.33-.48.72-.6,1.15h1.1Zm.23-6.39c.22,0,.42-.12.52-.3h.39c.07.17.28.26.28.26v2.06c-.2.12-.53.37-.49.72,0,0,.18.58.54.24l.47-.22.47.22c.36.34.54-.24.54-.24.04-.39-.38-.66-.55-.76v-.51s0-1.52,0-1.52c0,0,.2-.1.28-.26h.39c.1.18.3.3.52.3.33,0,.6-.27.6-.61,0-.28-.2-.53-.47-.59-.24-.52-.7-.91-1.25-1.08,0-.02.01-.04.01-.07,0-.3-.24-.55-.55-.55s-.55.24-.55.55c0,.01,0,.03,0,.05-.6.15-1.08.56-1.33,1.11-.26.07-.45.3-.45.58,0,.34.28.61.62.61Zm1.67-1.74c.53,0,1,.31,1.21.76-.05.07-.09.16-.11.24h-.33s.03-.44-.79-.43c-.83-.01-.73.43-.73.43h-.33c-.02-.09-.06-.19-.12-.26.22-.44.67-.74,1.2-.74Zm6.44,9.38v-.51c-.79-1.52-1.31-.64-1.31-.64v1.79s.51.89,1.31-.64Zm-14.07,7.75c-3.74.73-6.4-2.78-6.4-2.78-.5,1.67.85,4.49,4.1,4.74,3.24.24,2.3-1.96,2.3-1.96Zm1.25,4.26c-2.02,2.4-4.83,1.73-4.83,1.73,0,0,1.49,2.12,3.52,1.25s1.31-2.98,1.31-2.98Zm8.48-6c.35-.28,1.02-.87,1.47-1.59.26-.41.26-.77.16-1.32,0,0-.58,1.36-1.63,1.6-.05.01-.19-.21,0-.32.03,0,1.28-.79,1.62-2.06.09-.37.12-.78.01-1.22,0,0-.95,1.7-1.96,2.29l-.37,13.03s-.41,1.91-1.26,2.73c-.84-.83-1.26-2.73-1.26-2.73l-.37-13.03c-1-.6-1.96-2.29-1.96-2.29-.11.44-.08.85.01,1.22.34,1.27,1.58,2.06,1.62,2.06.19.12.05.34,0,.32-1.05-.24-1.63-1.6-1.63-1.6-.09.55-.09.91.16,1.32.45.72,1.12,1.31,1.47,1.59.12.1.02.14.02.14-.78.26-1.64-1.39-1.65-1.39-.04.85-.12,1.02.33,1.67.2.2.35.23.44.32.61.59.54,1.58.54,1.58l.09,7.99c.07,2.34,1.81,4.65,2.08,4.93l.07.13v.11l.03-.05.03.05v-.11l.07-.13c.26-.28,2.01-2.59,2.08-4.93l.09-7.99s-.07-1,.54-1.58c.09-.09.24-.13.44-.32.46-.64.37-.82.33-1.67,0,0-.87,1.66-1.65,1.39,0,0-.1-.04.02-.14Zm-6.2,5.94c-.41.03-1.31-1.98-1.31-1.98-.86-1.85-.49-3.01,0-3.62.38-.47.83-.58.83-.58,0,0,.26-1.46-2.17-3.52-2.5-2.13-4.22-1.39-6.23-3.8-.31-.37-.49-1.03-.66-1.98-.23-1.27.66-1.98.66-1.98-1.83,1.24-1.45,3.47-1.45,3.47.56,3.36,3.72,4.41,5.72,5.55,2.52,1.44,2.23,4.47,2.23,4.47.3,4.2,3.04,7.59,3.04,7.59v-3.95c-.19.41-.46.4-.66.32Zm-1.71,1.75s.35,1.77-2.47,2.61c0,0,1.81,1.26,2.88-.2s-.41-2.4-.41-2.4Zm16.95-9.94s-1.52.64-2.08,1.15c-.78.71-.93,1.82-.93,1.82,0,0,1.64.39,3.12-.39,1.87-.98,3.38-2.42,3.63-5.81,0,0-.75,2.16-3.74,3.23Zm2.34-9.24s.9.71.67,1.98c-.18.95-.35,1.61-.67,1.98-2.04,2.42-3.78,1.68-6.32,3.81-2.46,2.07-2.2,3.53-2.2,3.53,0,0,.46.12.85.58.5.61.87,1.77,0,3.63,0,0-.92,2.01-1.33,1.98-.2.07-.48.08-.67-.33v3.96s2.78-3.4,3.08-7.62c0,0-.29-3.03,2.27-4.48,2.03-1.15,5.24-2.19,5.81-5.57,0,0,.38-2.25-1.48-3.47Zm-5.44,13.27s-.95,2.21,2.34,1.97c3.29-.24,4.66-3.09,4.16-4.76,0,0-2.69,3.52-6.49,2.79Zm-1.85,5.98s-1.5.95-.41,2.41c1.08,1.47,2.92.2,2.92.2-2.86-.83-2.5-2.61-2.5-2.61Zm.59-1.7s-.72,2.13,1.34,2.99c2.06.87,3.57-1.26,3.57-1.26,0,0-2.87.68-4.91-1.73Zm.82-2.27s-.63.85.2,1.89c1.11,1.4,5.28,1.75,5.64-1.48,0,0-4.66,1.54-5.84-.41Z"/>
  </g>
</svg>