<svg id="WHITE_TYPE" xmlns="http://www.w3.org/2000/svg" width="38" height="38" viewBox="0 0 38 38">
  <g id="class_17_copy" data-name="class_17 copy">
    <path d="M29.44,16.29a.53.53,0,0,0,.48-.17.87.87,0,0,0,.09-.83c-.2-.52-1-.69-1-.69a13.11,13.11,0,0,1-2.54-1.09A6.83,6.83,0,0,1,24.66,12h0A3.41,3.41,0,0,1,24,10a2.89,2.89,0,0,1,1.36-2.24l.21-.1c.39-.15.39-.29.39-.29,0-.2-.32-.33-.32-.33a2.57,2.57,0,0,0-1.52.18L24,7.25c.09-.06.46-.33.46-.66,0,0,0-.4-.92-.28A3.15,3.15,0,0,0,20.89,7.8h0c-.11-.43-.29-.4-.48-.7a2.68,2.68,0,0,0,1.49-2.38A2.78,2.78,0,0,0,19,2a2.84,2.84,0,0,0-2.88,2.76A2.63,2.63,0,0,0,17.6,7.1c-.19.29-.36.27-.47.7h0a3.15,3.15,0,0,0-2.64-1.49c-1-.12-.92.23-.92.23,0,.33.37.62.46.68l-.12,0A2.62,2.62,0,0,0,12.37,7s-.37.12-.32.32c0,0,0,.14.39.3l.2.1A2.87,2.87,0,0,1,14,10,3.41,3.41,0,0,1,13.34,12h0a6.83,6.83,0,0,1-1.77,1.48A13.42,13.42,0,0,1,9,14.6s-.84.17-1,.69a.87.87,0,0,0,.09.83.53.53,0,0,0,.48.17A11.88,11.88,0,0,0,6,23.64C6,30.35,11.66,35.83,18.67,36h.64c7-.17,12.69-5.65,12.69-12.36A11.88,11.88,0,0,0,29.44,16.29ZM21,9.78a3.24,3.24,0,0,1,.29-.94,2.54,2.54,0,0,1,.33-.5c.05-.06.16-.13.16-.19h0l.07-.05,0,0h0a.94.94,0,0,1,.56-.2.56.56,0,0,1,.38.14.5.5,0,0,1,.14.46,1,1,0,0,1-.28.51,3.83,3.83,0,0,1-.51.31,4.07,4.07,0,0,0-.55.37,3.62,3.62,0,0,0-.57.71s0,0,0,0h0s0,0,0-.07A2.18,2.18,0,0,1,21,9.78Zm-4.2-5A2.14,2.14,0,0,1,19,2.69a2.16,2.16,0,0,1,2.18,2.08A2,2,0,0,1,20,6.58c-.34-.44-.7-.83-1-.83h0c-.28,0-.64.39-1,.83A2,2,0,0,1,16.82,4.77Zm2.81,3.52a20,20,0,0,1-.58,2.41s-.06,0-.06,0a.07.07,0,0,1,0,0,19.8,19.8,0,0,1-.59-2.41A.75.75,0,0,1,19,7.48.75.75,0,0,1,19.63,8.29ZM15.15,8a.56.56,0,0,1,.38-.14.91.91,0,0,1,.55.2h0l0,0s0,0,0,.05h0a.61.61,0,0,1,.2.19,3,3,0,0,1,.35.5,3.24,3.24,0,0,1,.3.94,2.49,2.49,0,0,1,.05.55s0,.06,0,.07h0s0,0,0,0a3.33,3.33,0,0,0-.58-.71,3.53,3.53,0,0,0-.55-.37,3.57,3.57,0,0,1-.5-.31A1,1,0,0,1,15,8.48.5.5,0,0,1,15.15,8ZM19,25.37a14,14,0,0,1-.45-3.16A9.3,9.3,0,0,1,19,19.44a8.39,8.39,0,0,1,.45,2.77A12.47,12.47,0,0,1,19,25.37Zm7.62,6.28a5,5,0,0,1-1.06.57,6.62,6.62,0,0,1-.71.23,10,10,0,0,1-1.62.25,5,5,0,0,1-2.62-.51,2.93,2.93,0,0,1-.66-.74l0,0h0l0,0a2.14,2.14,0,0,1,0-2.07l0,0,0,0v0a1.29,1.29,0,0,1,1.21-.35,6.37,6.37,0,0,0,1.08.09,4.32,4.32,0,0,0,3.45-1.41,9.48,9.48,0,0,0,1.92-3.4,0,0,0,0,0,0-.06,9.32,9.32,0,0,0-1.9-.19c-2,0-5.28.6-6.31,4.5a4.7,4.7,0,0,1,.46-1.94s.61-1.05.84-1.32a6,6,0,0,0,1-3.53c-.16-1.74-1.11-3.13-2.69-4.93h0c-1.57,1.8-2.52,3.19-2.68,4.93a6,6,0,0,0,1,3.53c.23.27.84,1.32.85,1.32a4.86,4.86,0,0,1,.46,1.94c-1-3.9-4.36-4.5-6.31-4.5a9.32,9.32,0,0,0-1.9.19.06.06,0,0,0,0,.06,9.81,9.81,0,0,0,1.92,3.4A4.35,4.35,0,0,0,15.76,29a6.52,6.52,0,0,0,1.08-.09,1.3,1.3,0,0,1,1.21.35v0l0,0v0a2.1,2.1,0,0,1,0,2.07l0,0h0v0a3,3,0,0,1-.67.74,5,5,0,0,1-2.62.51,10.22,10.22,0,0,1-1.62-.25,7.2,7.2,0,0,1-.7-.23,5.14,5.14,0,0,1-1.07-.57,10.94,10.94,0,0,1-4.14-8.51A11.16,11.16,0,0,1,14.13,13a10.62,10.62,0,0,1-.84.77s-.37.32-.2.59c0,0,.34.47,1.24.16a7,7,0,0,0,2.61-1.8c.18.46,1.18,2.92,2,3h0c.85,0,1.87-2.5,2-3a7,7,0,0,0,2.61,1.8c.9.31,1.24-.16,1.24-.16.16-.27-.21-.59-.21-.59-.2-.16-.56-.5-.83-.77a11.18,11.18,0,0,1,6.89,10.18A10.92,10.92,0,0,1,26.61,31.65ZM18,28.16a31.4,31.4,0,0,0-5.83-3.39S16.31,24.77,18,28.16Zm7.71-3.39a31.51,31.51,0,0,0-5.82,3.39C21.63,24.77,25.74,24.77,25.74,24.77Z" fill="#fff"/>
  </g>
</svg>
