<svg id="WHITE_TYPE" xmlns="http://www.w3.org/2000/svg" width="38" height="38" viewBox="0 0 38 38">
  <g id="class_8_copy" data-name="class_8 copy">
    <g>
      <polygon points="19.01 17.19 24.12 12.25 21.61 9.35 18.59 12.08 21.45 12.08 19.01 14.35 16.69 12.2 22.99 6.33 19.01 3.66 20.85 1.51 16.57 4.18 19.84 6.27 13.9 11.85 19.01 17.19" fill="#fff"/>
      <polygon points="19.01 20.81 13.9 25.75 16.4 28.65 19.43 25.92 16.57 25.92 19.01 23.65 21.32 25.8 15.03 31.67 19.01 34.34 17.16 36.49 21.45 33.82 18.18 31.73 24.12 26.15 19.01 20.81" fill="#fff"/>
      <polygon points="13.11 14.18 10.13 16.63 12.93 19.59 12.93 16.79 15.24 19.18 13.05 21.44 7.04 15.28 4.31 19.18 2.11 17.38 4.85 21.56 6.99 18.36 12.69 24.17 18.16 19.18 13.11 14.18" fill="#fff"/>
      <polygon points="33.16 16.79 31.01 19.99 25.31 14.18 19.84 19.18 24.89 24.17 27.87 21.72 25.07 18.76 25.07 21.56 22.75 19.18 24.95 16.91 30.95 23.07 33.69 19.18 35.89 20.98 33.16 16.79" fill="#fff"/>
    </g>
  </g>
</svg>
