<svg id="WHITE_TYPE" xmlns="http://www.w3.org/2000/svg" width="38" height="38" viewBox="0 0 38 38">
  <g id="class_19_copy" data-name="class_19 copy">
    <g>
      <path d="M18.45,4.51h-3.6V8.13h-3V9h6.64V8.13H15.68V5.34h1.94v.83h-.83V7h1.66V5h0Z" fill="#fff"/>
      <path d="M23.15,8.13V4.51h-3.6V5h0V7h1.66V6.17h-.83V5.34h1.94V8.13H19.56V9H26.2V8.13Z" fill="#fff"/>
      <path d="M17.62,31h-.83v.84h.83v.83H15.68V29.87h2.76V29H11.8v.84h3v3.62h3.6V33h0V31Z" fill="#fff"/>
      <path d="M26.2,29H19.56v.84h2.76v2.79H20.38v-.83h.83V31H19.55V33h0v.45h3.6V29.87H26.2V29Z" fill="#fff"/>
      <path d="M9,19.57H8.2v2.78H5.43v-2h.83v.84h.83v-.84h0v-.83H4.6v3.62H8.21v1.39H6.82v2H9V26H9v-.84H9v-.56H9v-5ZM8.2,26H7.37v-.84H8.2Z" fill="#fff"/>
      <path d="M9,12v-.56H6.82v2H8.2v1.39H4.6v3.62H7.09v-.83h0v-.84H6.26v.84H5.43V15.66H8.21v2.78H9v-5H9v-.56H9V12Zm-.84.84H7.37V12H8.2Z" fill="#fff"/>
      <path d="M29,24.58h0v.56h0V26h0v.56h2.21v-2H29.8v-1.4h3.6V19.56H30.91v.84h0v.83h.83V20.4h.83v2H29.8V19.57H29Zm.83.55h.83V26H29.8Z" fill="#fff"/>
      <path d="M29,12v.84h0v.56h0v5h.83V15.66h2.77v1.95h-.83v-.83h-.83v.83h0v.84H33.4V14.83H29.8v-1.4h1.38V11.48H29V12Zm.83,0h.83v.84H29.8Z" fill="#fff"/>
      <path d="M14.57,12.31H11.8V14h0v.56h1.66V13.43h-.55V14h-.56V12.87H14V15.1H11.8v7.53h2.77V12.87h0v-.56Z" fill="#fff"/>
      <path d="M18.45,11.75H15.67v1.68h0V14h1.66V12.87h-.55v.56h-.56V12.31h1.67v2.23H15.67v7.82h2.77v-10h0v-.56Z" fill="#fff"/>
      <path d="M22.33,11.75H19.55v1.68h0V14h1.66V12.87h-.55v.56H20.1V12.31h1.67v2.23H19.55v7.54h2.77V12.31h0v-.56Z" fill="#fff"/>
      <path d="M26.2,12.31H23.43V14h0v.56h1.66V13.43h-.55V14H24V12.87h1.67v2.24H23.43v7H26.2V12.87h0v-.56Z" fill="#fff"/>
      <path d="M16.23,23.46v2.23H14V24h1.12v.55h-.56v.56h1.11v-.56h0V23.46H13.46V24h0v2.23h10V23.46Z" fill="#fff"/>
    </g>
  </g>
</svg>
