<svg id="WHITE_TYPE" xmlns="http://www.w3.org/2000/svg" width="38" height="38" viewBox="0 0 38 38">
  <g id="class_16_copy" data-name="class_16 copy">
    <g>
      <path d="M33,20s-2.89,1.3-2.57,3.78c0,0-2.32,2-3.06-1.45.72-2.55,2.76-.79,2.76-.79-1.71-3.24-1.18-5,0-5.32C31,16,33,17.66,33,17.66c-.33-1.1-2.23-5-6.55-.67l-.28-.21a4.43,4.43,0,0,0,1-1.08c.54-.84,1.14-2.12,1.64-3a4.18,4.18,0,0,1,3.51-2.33l-1.11-.26C29,9.67,29,10.94,28,12.53c-.49.76-2.9,3.7-2.49,2.71a10.65,10.65,0,0,0,.34-1.3c.14-1.08.72-1.18,1.44-1.5l-.69-.16c-1.36-.29-1.31.52-2,1.47-.86,1.15-.69.42-.69.42.17-.62,1.76-2.7,1.61-4.26-.1-1-.42-2.38-.55-3.35a4.3,4.3,0,0,1,1.28-4l-1,.5c-2,1-1.28,2.06-1.09,4,.08.89.2,3.71-.4,2.89a8.57,8.57,0,0,1-.24-2.3l-.63.31c-1.24.64-.79,1.28-.67,2.45.05.55.1,1.16.12,1.82A2.66,2.66,0,0,1,21.6,14a3,3,0,0,1-.46.06,2.1,2.1,0,0,0-.28-.47v0a4,4,0,0,0-.47-.52l-.81-.72a6.92,6.92,0,0,1,.78,2.35h0a1,1,0,0,0-.17-.29,9.44,9.44,0,0,1-.27,1.43,3.1,3.1,0,0,1-.72,1h0L19,17l-.14-.15h0a3.26,3.26,0,0,1-.72-1,9.44,9.44,0,0,1-.27-1.43,1,1,0,0,0-.17.29h0a7.2,7.2,0,0,1,.78-2.35l-.81.72a4,4,0,0,0-.47.52v0a1.76,1.76,0,0,0-.27.47A3,3,0,0,1,16.4,14a2.66,2.66,0,0,1-.64-1.86c0-.66.07-1.27.13-1.82.11-1.17.56-1.81-.68-2.45l-.63-.31a8.93,8.93,0,0,1-.23,2.3c-.61.82-.49-2-.4-2.89.18-1.9.92-2.93-1.09-4l-1-.5a4.3,4.3,0,0,1,1.29,4.05c-.14,1-.46,2.35-.56,3.35-.14,1.56,1.44,3.64,1.61,4.26,0,0,.18.73-.68-.42-.72-.95-.68-1.76-2-1.47l-.69.16c.72.32,1.3.42,1.44,1.5a13,13,0,0,0,.34,1.3c.41,1-2-2-2.48-2.71C9,10.94,9,9.67,6.76,10.15l-1.11.26a4.18,4.18,0,0,1,3.51,2.33c.5.84,1.1,2.12,1.64,3a4.43,4.43,0,0,0,1,1.08l-.27.21c-4.33-4.37-6.23-.43-6.55.67,0,0,2-1.65,2.84-1.41,1.15.32,1.68,2.08,0,5.32,0,0,2-1.76,2.76.79-.74,3.49-3.06,1.45-3.06,1.45C7.85,21.33,5,20,5,20,8.17,23.42,3.61,26,3.61,26,7,25,7.34,27.53,7.34,27.53h2.5c2.06-5.68,3.92-3.85,3.92-3.85a5.38,5.38,0,0,1,1.8,1.89c-.45-2.22.26-2.12.26-2.12,1.28-.92,1.54.62,1.54.62.89.56,1.49.36,1.64.24v0c.15.12.75.33,1.64-.24,0,0,.26-1.54,1.54-.62,0,0,.71-.1.26,2.12a5.38,5.38,0,0,1,1.8-1.89s1.86-1.83,3.92,3.85h2.51S31.05,25,34.39,26C34.39,26,29.83,23.42,33,20Zm-19.17.63-.48-.52-.17-1.22L16,21.19Zm10.75-.52-.49.52-2.1.53,2.76-2.27Z" fill="#fff"/>
      <path d="M24.41,25.52c1.23,3.45-1.78,4.16-1.86,3.07a3.46,3.46,0,0,0-1.16-2s.39,3.13-1.54,3.33h-1.7c-1.93-.2-1.54-3.33-1.54-3.33a3.46,3.46,0,0,0-1.16,2c-.07,1.09-3.09.38-1.86-3.07-4,3.39-.77,9.45-.9,7.37a2.31,2.31,0,0,1,1.8-2.48l2.25,2.21L15.46,33,19,35.42v.07h0l.05,0,.06,0h0v-.07L22.55,33l-1.28-.33,2.25-2.21a2.31,2.31,0,0,1,1.8,2.48C25.18,35,28.4,28.91,24.41,25.52Z" fill="#fff"/>
    </g>
  </g>
</svg>
