<svg id="WHITE_TYPE" xmlns="http://www.w3.org/2000/svg" width="38" height="38" viewBox="0 0 38 38">
  <g id="class_24_copy" data-name="class_24 copy">
    <g>
      <path d="M13.79,4.06a7,7,0,0,0-2.75,4,9,9,0,0,0-4.71,3.51s-1,1.95,0,2.38c0,0,.93,1.3,3.52-1,0,0-1.86,2.34-3.95,2.6a1.37,1.37,0,0,1-1.18-1.38A15.57,15.57,0,0,1,13.79,4.06Z" fill="#fff"/>
      <path d="M4.26,16.11s-.43,3.81.17,5.46c0,0,0-3.43,2.5-4.94a2.38,2.38,0,0,1-1.66.43A2.3,2.3,0,0,1,4.26,16.11Z" fill="#fff"/>
      <path d="M11.59,13.42A10.46,10.46,0,0,1,9.81,15.5s-4.3,4-4.29,6.24a7.08,7.08,0,0,0,.9,4.94,12.7,12.7,0,0,0,4.11,4.55l.51-.57S9,28.46,9.26,26c0,0-.34-1.69,1.69-4.25,0,0,3.48-3.46,4.45-5.67a7.74,7.74,0,0,0,.72-2,27.65,27.65,0,0,0,.76-3.6,9.78,9.78,0,0,1-2.33,3.34,18,18,0,0,1-1.74,1.43s-1.39.74-2.16,1.26C10.66,16.5,11,16.45,11.59,13.42Z" fill="#fff"/>
      <path d="M20.07,14.41s-.35-7.34-.19-9.19a1.41,1.41,0,0,1,.19-.81,27.09,27.09,0,0,1-1-2.9,25.46,25.46,0,0,1-1,2.9,1.41,1.41,0,0,1,.19.81c.16,1.86-.19,9.19-.19,9.19-.16,4.35-2.19,11.19-2.19,11.19a.87.87,0,0,1,1-.23c1,.32,1.55,1.95,1.55,1.95a13,13,0,0,0,.45-2.68,7.19,7.19,0,0,0-1.48-.95,8.48,8.48,0,0,0,.72-1.91,2.88,2.88,0,0,1,1,1.69,2.87,2.87,0,0,1,1-1.69,8,8,0,0,0,.73,1.91,7.17,7.17,0,0,0-1.49.95,13.2,13.2,0,0,0,.46,2.68s.59-1.63,1.55-1.95a.87.87,0,0,1,1,.23S20.23,18.76,20.07,14.41Zm-.65,7.16a3.25,3.25,0,0,0-.35,1.08,3.53,3.53,0,0,0-.35-1.08,2.13,2.13,0,0,0-.35-.72,15.14,15.14,0,0,0,.7-3,14.88,14.88,0,0,0,.69,3A2.69,2.69,0,0,0,19.42,21.57Z" fill="#fff"/>
      <path d="M23.28,29a3.33,3.33,0,0,1-2,1.19,1.08,1.08,0,0,1-1-.37c-.89-.54-1.2-3.73-1.2-3.73s-.32,3.19-1.21,3.73a1,1,0,0,1-1,.37,3.33,3.33,0,0,1-2-1.19,29.71,29.71,0,0,1-1.36,3.1,5,5,0,0,1,4,.09s.89.41,1.61,4.28c.72-3.87,1.6-4.28,1.6-4.28a5,5,0,0,1,4-.09A32.36,32.36,0,0,1,23.28,29Z" fill="#fff"/>
      <path d="M22.27,3.3s1.16,1.37,1.12,4.53a15.78,15.78,0,0,1-.74,5.61,33.29,33.29,0,0,0-.62,3.9,27.23,27.23,0,0,0,.39,3.94S23.81,27,23.81,27a16,16,0,0,1,0-5c.49-1.56,1.53-4.5,1.85-6.21a23.41,23.41,0,0,0,0-5.81A10.89,10.89,0,0,0,22.27,3.3Z" fill="#fff"/>
      <path d="M27.29,5.38A5.24,5.24,0,0,1,28.79,9a12,12,0,0,1-1.29,4.79,34.44,34.44,0,0,0-2.86,7.54c-.25,1.69-.76,6.91.44,8.82a6.91,6.91,0,0,1-.44-2.36,14.61,14.61,0,0,1,1.82-5.59c.81-1.45,1.32-2.26,2-3.27a11.23,11.23,0,0,0,1.63-5.24,10.63,10.63,0,0,0-.59-5.16A8.74,8.74,0,0,0,27.29,5.38Z" fill="#fff"/>
      <path d="M32.25,10.65a6.53,6.53,0,0,1,.38,2.71,11.23,11.23,0,0,1-1.48,4.76c-1,1.35-1.66,2.19-2.74,3.53a17.19,17.19,0,0,0-2.56,3.66,9.29,9.29,0,0,0,0,6.68,4.84,4.84,0,0,1,.78-3.69,23.36,23.36,0,0,1,2.29-2.64c1.06-1,3.11-2.51,4-4.23a10.83,10.83,0,0,0,.94-5.85A15.79,15.79,0,0,0,32.25,10.65Z" fill="#fff"/>
    </g>
  </g>
</svg>
