<svg id="WHITE_TYPE" xmlns="http://www.w3.org/2000/svg" width="38" height="38" viewBox="0 0 38 38">
  <g id="class_0_copy" data-name="class_0 copy">
    <g>
      <path d="M18.24,3.28a2.38,2.38,0,0,0,.75.17h0a2.38,2.38,0,0,0,.75-.17c.46-.16.41-.52.41-.52A1.65,1.65,0,0,0,19,1.39h0a1.66,1.66,0,0,0-1.16,1.37A.52.52,0,0,0,18.24,3.28Z" fill="#fff"/>
      <path d="M17.72,14.12h.18L19,12.87l-.21.25.21-.26.19.21-.18-.2,1.09,1.25h.19a2.11,2.11,0,0,0-.56-1.32s-.44-.63.22-2.81a1.64,1.64,0,0,0-.1-1.78l.35-.73L19.79,7l.46-.52V6.27l-.58-.34L20,3.63c0,.05-.13.23-1,.23s-1-.17-1-.23l.37,2.3-.58.34v.21l.45.52-.41.48.35.73a1.64,1.64,0,0,0-.1,1.78c.66,2.18.23,2.81.23,2.81A2.11,2.11,0,0,0,17.72,14.12Z" fill="#fff"/>
      <path d="M18,3.63v0" fill="#fff"/>
      <path d="M20,3.63v0" fill="#fff"/>
      <path d="M21.77,17.22,20.1,15.3,19,14l.18.21L19,14l-.21.25L19,14,17.9,15.3l-1.67,1.91a1.84,1.84,0,0,1,.6.88c-.38.54-.89,1.25-1.57,2.16,0,0,1.24,1.07,1.47,5v7.65l1.72,3.68V25.32s0-4,.55-4.86c.6.85.56,4.86.56,4.86v11.3l1.71-3.68V25.29c.23-4,1.47-5,1.47-5-.68-.91-1.19-1.62-1.56-2.16A1.73,1.73,0,0,1,21.77,17.22Z" fill="#fff"/>
      <path d="M26.83,4.61a13.78,13.78,0,0,1,4.2,4s.36,1.16-1,1a16.94,16.94,0,0,0-4.74-4.21S28.2,8.83,28,11.12a4.63,4.63,0,0,1-1.17,3,3.86,3.86,0,0,1-3,.56V13l1.42,1L22.52,9.73v7.54l.25,0c1.19,0,2.55,2.4,2.16,4.37-.3,1.51-1.18,3-2.16,1.75v5.72l.74-.33v4.26l4-3.12H26.16a1.47,1.47,0,0,1,.67-1.65,1.82,1.82,0,0,1,2,.09c2.26-1.81,2.38-3.1,2.38-3.1-1.37,0-2.08,0-2.3-.06,1.27-1.21,3.53-3.81,3.69-7.13a12.21,12.21,0,0,0-1-6c.18-.22.49-.4,1,0a7.87,7.87,0,0,1,.76,5.31S36.4,8.6,26.83,4.61Zm-3,22.19v-1a5.74,5.74,0,0,0,2.87-4.91l2.67.8C28.57,24.67,23.81,26.8,23.81,26.8Zm6.12-6.9-3.63-1a4.42,4.42,0,0,0-1-2s3.27-.5,4.78-2.83C30.1,14,31,17.8,29.93,19.9Z" fill="#fff"/>
      <path d="M15.23,17.29l.25,0V9.73L12.77,14l1.42-1v1.75a3.86,3.86,0,0,1-3-.56,4.63,4.63,0,0,1-1.17-3c-.21-2.29,2.65-5.74,2.65-5.74A16.94,16.94,0,0,0,7.92,9.59c-1.31.19-1-1-1-1a13.78,13.78,0,0,1,4.2-4C1.6,8.6,4.7,17.37,4.7,17.37a7.78,7.78,0,0,1,.76-5.31c.51-.38.82-.19,1,0a12.21,12.21,0,0,0-1,6c.16,3.32,2.42,5.92,3.69,7.13-.22,0-.93.06-2.3.06,0,0,.12,1.28,2.38,3.1a1.82,1.82,0,0,1,2-.09,1.45,1.45,0,0,1,.67,1.64H10.46l4,3.12V28.8l.74.33V23.4c-1,1.22-1.86-.24-2.16-1.75C12.68,19.69,14,17.29,15.23,17.29ZM7.9,14c1.52,2.33,4.78,2.83,4.78,2.83a4.3,4.3,0,0,0-1,2l-3.63,1C7,17.8,7.9,14,7.9,14Zm6.29,11.79v1s-4.76-2.13-5.54-5.08l2.67-.8A5.73,5.73,0,0,0,14.19,25.83Z" fill="#fff"/>
    </g>
  </g>
</svg>
