<svg id="WHITE_TYPE" xmlns="http://www.w3.org/2000/svg" width="38" height="38" viewBox="0 0 38 38">
  <g id="class_31_copy" data-name="class_31 copy">
    <g>
      <path d="M15.05,14.52A8.11,8.11,0,0,0,17.53,21s-.66,3,1.21,3.85c0,0-1.87.47-3.5-3.37a3.53,3.53,0,0,0-2.53-2.23,5.91,5.91,0,0,0,1.17-2.19A6.45,6.45,0,0,1,15.05,14.52Z" fill="#fff"/>
      <path d="M11.22,21.45S9.3,24.3,6.91,24.25c0,0-2.92.06-3.79-1.4a10.34,10.34,0,0,0,3,3A20.24,20.24,0,0,0,10.76,28c2.56,1.18,3.61,1.75,5.54,2.82,1.47.28,4.24,1.56,7.78-.43,1.4-.89,3.93-2.71,6.32-3.28a11.09,11.09,0,0,1,3.71.07l.32.15a5.66,5.66,0,0,0-1.79-1,20.28,20.28,0,0,1-2.52-1.18,6,6,0,0,0-3.3.71,26.22,26.22,0,0,0-5.26,3,24.28,24.28,0,0,1-3.82,1.06A10.8,10.8,0,0,1,13.81,29a4.17,4.17,0,0,1-2.38-3.2c.07-.86.42-1.93,2.38-.43,1.47.82,3.26,2.35,6,.93a5,5,0,0,1-2.66-.15A9.62,9.62,0,0,1,13.53,23c-.56-.64-.34-.57-.82-1A2.4,2.4,0,0,0,11.22,21.45Z" fill="#fff"/>
      <path d="M16.37,13.24a11.46,11.46,0,0,0,1.09,3.84,3.49,3.49,0,0,1,2-2.56,4.69,4.69,0,0,0,1.06-2.71s.73.14.59,2.31c-.24,1.68.18,2.32-2,4.63a5,5,0,0,1,3.05-1.67,2.89,2.89,0,0,1,1.65.68s-.81-.07-1-2.92c.32-2.5.18-4.63,1.58-7a5.88,5.88,0,0,1-.18,2.85A6.45,6.45,0,0,1,24,12.66a4.17,4.17,0,0,1,1.16.65,2.17,2.17,0,0,0,2.06,1,2.81,2.81,0,0,0,.85-.29s-1.2.29-1.65-1.35a13.61,13.61,0,0,1-.67-4,2.44,2.44,0,0,0-2.21-2.1,4.88,4.88,0,0,0-2,.42,14.51,14.51,0,0,0-2.75,2.39A15.81,15.81,0,0,0,16.37,13.24Z" fill="#fff"/>
      <path d="M23.63,20.89c.07.08,0-1.57-2-2,0,0-1.68.22-1.82,2.67.39,2,1.05,3.31,2.6,3.85l.63-.07s.17-1.25,2.1-1.39a5.72,5.72,0,0,1,2.88.25,4.77,4.77,0,0,1-1.93-1.18c-.14-1-.14-2.38,2.14-4.13a21.29,21.29,0,0,0,2.8-3.42,5.41,5.41,0,0,1,3.82-2.27,8.93,8.93,0,0,0-6.17,2.31,14.12,14.12,0,0,0-3.12,5.16,5.89,5.89,0,0,1-.8,1.61c-.53.42-.85.78-1.44.85s-1,.14-1,.14A1.78,1.78,0,0,1,21,21.45c.11-.95.64-1.38,1.25-1.41A2.66,2.66,0,0,1,23.63,20.89Z" fill="#fff"/>
    </g>
  </g>
</svg>
