<svg id="WHITE_TYPE" xmlns="http://www.w3.org/2000/svg" width="38" height="38" viewBox="0 0 38 38">
  <g id="class_28_copy" data-name="class_28 copy">
    <g>
      <path d="M24.06,19.41l-.26-.19C24,19.49,24.06,19.41,24.06,19.41Z" fill="#fff"/>
      <path d="M19.77,18.94a2.09,2.09,0,0,1-.27-2.62c.49-.47,1-.87,2-.11.69.62,1.42.91.94,2.73l-.18.29a3,3,0,0,1,.84-.22.94.94,0,0,1,.72.21,3,3,0,0,1-.25-.86,16.16,16.16,0,0,1,.19-4.84,17.63,17.63,0,0,1,1.31-4.84A27.77,27.77,0,0,1,28.5,4.5a24.93,24.93,0,0,1-3.82,2.76,13.61,13.61,0,0,0-3.42,2.26A24.38,24.38,0,0,0,17,14.29S18,17.81,19.77,18.94Z" fill="#fff"/>
      <path d="M15.29,22.54a3.76,3.76,0,0,0,1.35,0,3.22,3.22,0,0,1,1.89,1.31l.77.91s-.73-.83-.69-4.43A8.86,8.86,0,0,1,17,19.13a13,13,0,0,1-2-2.59,15.1,15.1,0,0,0-1.42,3.75S13.91,22.36,15.29,22.54Z" fill="#fff"/>
      <path d="M33.13,28.15c-1-.55-1.1-.48-2.52-1.35a3,3,0,0,0-2.11,0,39.19,39.19,0,0,0-4.33,2.37,8.81,8.81,0,0,1-5.64,2.14,8.05,8.05,0,0,1-4.15-1.2,3.18,3.18,0,0,1-2-2.73c.36-1.27,1.34-2,3.05-2.1A4.13,4.13,0,0,1,18.86,27s.25-1.31-1.86-2.4A13.73,13.73,0,0,1,13.29,24s-.62-.07-1.53-1.56a6.64,6.64,0,0,1-2.55,2.8c-1.16.58-1.27.95-2.69.91a5.51,5.51,0,0,1-3.91-1.64A13.39,13.39,0,0,0,7.14,28.4a10,10,0,0,0,2.91,1c2,1,4.55,2.29,7.65,3.64a16.13,16.13,0,0,0,3.05.44,10,10,0,0,0,5.39-2,13.35,13.35,0,0,1,7-2.55,15.71,15.71,0,0,1,2.22.29S35.31,28.91,33.13,28.15Z" fill="#fff"/>
      <path d="M26.28,23.31c-.4.65-1.34,2.14-2.73,2-1.09-.18-1.74-.07-2.14-2a2.22,2.22,0,0,1,.43-1.09c.59-.51.73-.65,1.39-.65a1.53,1.53,0,0,1,1.05,1.52,2,2,0,0,0-.8-2.4A2.34,2.34,0,0,0,21,21.71c-.55.73-.87,1.53-.4,3.24a3.53,3.53,0,0,1,.91,1.92,3.48,3.48,0,0,1-2.18,2.22c-1.06.08-2.92.15-3.46-.43-.51-.4-1.35-.88-.11-2.23,0,0-1.24.66-1.13,1.52a3.26,3.26,0,0,0,2.73,1.91c1.24.07,2.48.47,6-2.3,1.24-1.16,1.42-1.38,2.15-1.67a2.17,2.17,0,0,0,1.49-1.13c.58-.87.48-1.67.73-3.05s1.16-5.1,7.13-6.41a9,9,0,0,0-4.58,1.46,9.81,9.81,0,0,0-2.26,2,9.57,9.57,0,0,1,1.49-3.5c.88-1.42,1.49-2.14,2.55-4.1a31.76,31.76,0,0,0,.84-3.34h-.11a15.41,15.41,0,0,1-3.39,6.54c-1.16,1.78-2.65,3.78-3.06,5.71A11.6,11.6,0,0,0,26.28,23.31Z" fill="#fff"/>
    </g>
  </g>
</svg>
