<svg id="WHITE_TYPE" xmlns="http://www.w3.org/2000/svg" width="38" height="38" viewBox="0 0 38 38">
  <g id="class_30_copy" data-name="class_30 copy">
    <path d="M34.39,16.43,22.85,19.76l-1.93-.67,13.15-3.78C34.71,15.13,35,16.25,34.39,16.43Zm-7.71,0a8.3,8.3,0,0,0-1.08-1.66l5.45-4.57A3.56,3.56,0,0,1,32.89,12a3,3,0,0,1,.5,2.5ZM23.42,12.9,27,6.71a3.57,3.57,0,0,1,2.36,1,3.25,3.25,0,0,1,1.32,2l-5.49,4.6A8.31,8.31,0,0,0,23.42,12.9Zm2.63,3.73-.82.24a7.3,7.3,0,0,0-.77-1.11l.65-.55A8.52,8.52,0,0,1,26.05,16.63Zm-3.38-2.44.42-.73a8.25,8.25,0,0,1,1.6,1.28l-.65.54A7.22,7.22,0,0,0,22.67,14.19Zm-2-2.36,1.24-7A3.42,3.42,0,0,1,24.55,5a3.23,3.23,0,0,1,1.92,1.4L22.86,12.6A8.19,8.19,0,0,0,20.68,11.83ZM19,11.66a9.45,9.45,0,0,0-1.07.07L16.67,4.65A3.63,3.63,0,0,1,19.09,4a3.45,3.45,0,0,1,2.23.61l-1.26,7.16A9.28,9.28,0,0,0,19,11.66Zm-3.89.95L11.5,6.4A3.19,3.19,0,0,1,13.44,5a3.55,3.55,0,0,1,2.62-.14l1.24,7A8.79,8.79,0,0,0,15.11,12.61Zm-2.32,1.73L7.32,9.79A3.13,3.13,0,0,1,8.65,7.73a3.68,3.68,0,0,1,2.29-1l3.61,6.2A8.68,8.68,0,0,0,12.79,14.34Zm-1.46,2.08-6.74-2A3,3,0,0,1,5.11,12a3.64,3.64,0,0,1,1.77-1.73l5.49,4.57A9.42,9.42,0,0,0,11.33,16.42Zm.63.19a8,8,0,0,1,.91-1.38l.66.54a7.19,7.19,0,0,0-.75,1.08Zm3.35-2.41a7.27,7.27,0,0,0-1.37,1.1l-.65-.54a8.12,8.12,0,0,1,1.59-1.28Zm4.63-1.82-.14.82c-.26,0-.53,0-.8,0a7,7,0,0,0-.8.05l-.15-.83a7.46,7.46,0,0,1,.95-.06A7.3,7.3,0,0,1,19.94,12.38ZM19.7,15.8a2.53,2.53,0,0,1-.7,1.57,2.52,2.52,0,0,1-.71-1.57A2.56,2.56,0,0,1,19,14.22,2.57,2.57,0,0,1,19.7,15.8Zm-4.26-2.62a7.52,7.52,0,0,1,2-.7l.15.82a7.23,7.23,0,0,0-1.71.6Zm3,4.66a2.09,2.09,0,0,1-1.59-.1A2.4,2.4,0,0,1,16,16.31a2.06,2.06,0,0,1,1.58.1A2.43,2.43,0,0,1,18.47,17.84Zm2.1-5.37a8.37,8.37,0,0,1,2,.69l-.42.73a7,7,0,0,0-1.7-.59Zm.54,5.27a2.06,2.06,0,0,1-1.58.1,2.42,2.42,0,0,1,.87-1.43,2.09,2.09,0,0,1,1.59-.1A2.43,2.43,0,0,1,21.11,17.74Zm.46,3.75-18-5c-.65-.18-.32-1.29.32-1.1l18,5.05Zm-2.95,2.88V22.81a2.54,2.54,0,0,1-2-2l4.2,1.26a2.44,2.44,0,0,1-1.41.75v1.57a.31.31,0,0,1-.28.31h0a.28.28,0,0,1,.12,0c.4-.41,1.73-1.72,2.09-.91a.72.72,0,0,1-.27.65s-.14.11-.06.41a.49.49,0,0,1-.61.5l.33.41a.35.35,0,0,1-.06.54l-.35.28a.45.45,0,0,1-.55,0,2.36,2.36,0,0,1-.36-.4V27a.31.31,0,0,1-.31.32h-.12a.32.32,0,0,1-.32-.32V26.3a1.93,1.93,0,0,1-.3.32.46.46,0,0,1-.54,0l-.35-.28a.35.35,0,0,1-.06-.54l.32-.42a.48.48,0,0,1-.6-.49c.08-.31-.07-.41-.07-.41a.73.73,0,0,1-.26-.65c.35-.8,1.64.45,2.06.89a.27.27,0,0,1,.12,0A.32.32,0,0,1,18.62,24.37ZM19,30.3l-.62.44L18,30.49c.1-1.34.23-2.81.23-2.81h1.5s.12,1.48.23,2.81l-.36.25Zm-.62,1.11L19,31l.62.44.41-.28c0,.69.09,1.26.09,1.41C20.12,33.13,19,34,19,34s-1.12-.91-1.12-1.5c0-.19,0-.74.09-1.42Z" fill="#fff" fill-rule="evenodd"/>
  </g>
</svg>
