<?xml version="1.0" encoding="UTF-8"?>
<svg id="WHITE_TYPE" xmlns="http://www.w3.org/2000/svg" width="38" height="38" viewBox="0 0 38 38">
  <g id="class_3_copy" data-name="class_3 copy">
    <path d="m30.03,9.62l.2-.02.15-.16.02-.29-.13-.13.03-.03c.22.04.46.05.7-.02.67-.17,1.07-.82,1.07-.82,0,0-.54-.29-1.13-.24.15-.25.22-.54.24-.77l.26.26.29-.02.15-.16.02-.29-.92-.92-.29.02-.15.16-.02.29.23.23c-.22.03-.5.09-.74.23.04-.58-.24-1.1-.24-1.1,0,0-.64.4-.81,1.08-.06.24-.05.49-.02.7l-.03.03-.12-.12-.29.02-.15.16-.02.19,1.68,1.7h0Zm-13.27,3.85s2.36-1.48,4.77-.37c0,0,2.48-2.38,2.58-3.58.1-1.21,1.13-3.55,2.98-4.15,0,0-3.66.58-3.96,3.28,0,0,.24-1.96-1.26-2.41,0,0,.56,2.29-1.47,3.28-2.02.98-3.76,2.86-3.64,3.95Zm-3.95-1.89c-1.97,2.26-2.56,6.14-2.56,6.14,2.21-.65,3.27-3.45,3.54-4.55.28-1.09,2.89-3.59,2.89-3.59-1.07,1.03-.87,3.02-.87,3.02.33-1.63,2-2.61,3.83-4.52,1.85-1.95-.58-3.24-.58-3.24.71.87-.41,3.32-2.22,2.87-2.6-.64-4.38.62-4.38.62,1.83.43,1.2,2.27.35,3.25Zm-4.43,9.02l1.09-1.67s-.54-1.25.33-3.27c1.86-4.33-1.13-5.31-1.13-5.31,0,0,1.28,3.98-.52,4.44-1.8.45-1.09,1.67-1.09,1.67,2.06.73,1.32,4.14,1.32,4.14Zm23.83-14.2c.19-.19.19-.49,0-.67-.19-.19-.49-.19-.67,0-.06.06-.1.14-.12.22l.58.58c.09-.02.16-.06.22-.12Zm-1.64,6.44c-2.46.2-7.7,3.86-6.12,10.07,0,0,.92-4.04,4.86-3.91,0,0,4.43-3.84,3.55-9.34,0,0-.44,3.03-2.3,3.18Zm-12.04,8.71c.19-.19.19-.49,0-.67h0l-1.34-1.35c-.19-.19-.49-.19-.67,0-.19.19-.19.49,0,.67l.17.17,1.17,1.18c.18.19.48.19.67,0Zm9.83-10.59l-1.34-1.35-9.49,9.57,1.34,1.35,9.49-9.57Zm-16.38,14.15l1.01,1.01,4.38-4.41-1.01-1.01-4.38,4.41Zm12.06-.4c-1.01.62-1.68,1.96-1.69,2.91-.03,2.15-2.14,2.84-2.9,2.91,1.5-.87.73-2.43.73-2.43-2.73,3.93-7.74.97-7.74.97l-1.22,1.28c8.4,5.01,15.24-3.12,15.49-3.96-.7.65-1.56,1.24-2.65,1.22-1.09-.01,0-2.9,0-2.9Zm-11.39,2.43c.19-.19.19-.49,0-.67h0l-1.01-1.01c-.19-.19-.49-.19-.67,0-.19.19-.19.49,0,.67l.5.51.5.51c.18.18.48.18.67,0Zm17.55-5.15c.31-1.16,1.73-.34,1.73-.34-5.42-3.67-7.37,4.61-7.37,4.61,1.86-2.43,4.05-3.15,4.05-3.15.03,1.3-2,2.29-2,2.29,2.88.16,5.81-2.29,6.11-2.55-.31.2-2.8.24-2.51-.87Zm-18.05,5.32l-.67-.67-.67-.67-2.29,2.31h0c-.19-.19-.49-.19-.67,0-.19.19-.19.49,0,.67l1.34,1.35c.19.19.49.19.67,0,.19-.19.19-.49,0-.67l2.28-2.32Zm20.58-4.47s-.01,0-.02.02c0,0,.02-.01.02-.02Zm-25.39,6.26l-.19.02-.15.16-.02.29.13.13-.03.03c-.22-.04-.46-.05-.7.01-.67.17-1.07.82-1.07.82,0,0,.54.29,1.13.24-.15.25-.22.54-.24.77l-.26-.27-.29.02-.15.16-.02.29.92.93.29-.02.15-.16.02-.29-.23-.23c.23-.02.5-.09.74-.23-.04.58.24,1.11.24,1.11,0,0,.64-.4.81-1.08.06-.24.05-.49.02-.7l.03-.03.12.12.29-.02.15-.16v-.19s-1.67-1.71-1.67-1.71h0Zm-1.2-8.51c-.31,3.53,1.81,6.26,1.81,6.26l1.14-1.15c-1.4-1.56-.78-4.39-.78-4.39-.66.45-1.47-.6-1.05-1.89.35-1.06-1.29-2.37-1.88-2.81.35.33.99,1.3.75,3.97Zm-.98,11.74c-.19.19-.19.49,0,.67.19.19.49.19.67,0,.06-.06.1-.14.12-.22l-.58-.58c-.08.02-.15.06-.22.12Zm.02-15.86s.09.06.22.15c-.13-.12-.22-.15-.22-.15Zm23.64-5.89c.19.19.49.19.67,0,.19-.19.19-.49,0-.67l-1.34-1.35c-.19-.19-.49-.19-.67,0-.19.19-.19.49,0,.67l1.34,1.35Z" fill="#fff" stroke-width="0"/>
  </g>
</svg>